<svg width="461" height="462" viewBox="0 0 461 462" fill="none" xmlns="http://www.w3.org/2000/svg">
<path d="M230.5 461.173C357.802 461.173 461 401.592 461 328.096C461 254.6 357.802 195.02 230.5 195.02C103.198 195.02 0 254.6 0 328.096C0 401.592 103.198 461.173 230.5 461.173Z" fill="#F5F5F5"/>
<path d="M269.953 401.265C293.36 401.265 312.335 390.31 312.335 376.797C312.335 363.283 293.36 352.328 269.953 352.328C246.546 352.328 227.571 363.283 227.571 376.797C227.571 390.31 246.546 401.265 269.953 401.265Z" fill="#E0E0E0"/>
<path d="M380.21 386.773C403.617 386.773 422.592 375.818 422.592 362.304C422.592 348.791 403.617 337.836 380.21 337.836C356.803 337.836 337.828 348.791 337.828 362.304C337.828 375.818 356.803 386.773 380.21 386.773Z" fill="#E0E0E0"/>
<path d="M148.389 437.953C171.796 437.953 190.771 426.998 190.771 413.484C190.771 399.971 171.796 389.016 148.389 389.016C124.982 389.016 106.006 399.971 106.006 413.484C106.006 426.998 124.982 437.953 148.389 437.953Z" fill="#E0E0E0"/>
<path d="M78.9261 333.022C78.9261 333.022 77.82 307.15 66.9735 292.749C56.1271 278.349 42.8327 276.28 36.247 280.336C31.4332 283.286 32.0785 292.053 40.4053 297.748C48.7322 303.442 64.7817 318.037 67.291 327.552L78.9261 333.022Z" fill="#37474F"/>
<path d="M71.7566 329.249C71.5809 329.236 71.4173 329.155 71.3006 329.023C71.1839 328.891 71.1233 328.719 71.1318 328.543C72.2482 305.068 51.6717 290.432 46.0692 287.799C45.9084 287.724 45.7839 287.588 45.7226 287.421C45.6613 287.254 45.668 287.07 45.7415 286.908C45.8192 286.747 45.9569 286.622 46.1254 286.561C46.2938 286.5 46.4795 286.507 46.6428 286.581C52.3886 289.305 73.6207 304.392 72.4735 328.573C72.463 328.751 72.3828 328.917 72.2506 329.036C72.1183 329.155 71.9445 329.217 71.7668 329.208L71.7566 329.249Z" fill="white"/>
<path d="M73.805 324.847C72.3263 324.827 70.9044 324.274 69.8003 323.29C68.5405 321.908 68.643 319.788 68.0592 318.005C67.1066 315.076 64.2183 313.089 61.2071 312.464C58.154 311.988 55.033 312.198 52.0711 313.079C46.0283 314.564 40.2209 310.846 34.1678 311.287C31.9837 311.357 29.8597 312.019 28.0225 313.202C27.1164 313.801 26.374 314.617 25.8625 315.576C25.351 316.534 25.0866 317.605 25.0933 318.692C25.3009 320.49 26.1965 322.138 27.5924 323.29C28.992 324.44 30.5343 325.404 32.1808 326.158L37.4965 328.872C38.4155 329.28 39.2627 329.834 40.0059 330.511C40.7081 331.264 41.2378 332.16 41.558 333.138C41.8782 334.117 41.9811 335.153 41.8597 336.175C41.45 338.223 39.8113 339.78 39.2889 341.788C38.6436 344.42 40.2517 347.237 42.5664 348.66C44.9706 349.962 47.7151 350.498 50.4324 350.197C53.1466 350.043 55.83 349.5 58.5442 349.449C60.3805 349.317 62.2158 349.719 63.8291 350.606C65.6511 351.926 66.9638 353.831 67.547 356.004C67.8989 357.397 68.4582 358.73 69.2063 359.957C70.1287 361.123 71.3708 361.995 72.7808 362.467C75.5079 363.471 78.5035 363.471 81.2306 362.467C83.4736 361.606 84.5695 359.076 85.4094 356.885C86.2486 354.59 86.6482 352.158 86.5872 349.715C86.4582 343.437 85.0393 337.252 82.4187 331.546C81.1589 328.924 79.346 326.302 76.5602 325.4C75.6579 325.143 74.7366 324.958 73.805 324.847Z" fill="#455A64"/>
<path d="M79.6226 352.994C79.4988 352.995 79.3779 352.956 79.2769 352.885C79.1759 352.813 79.0998 352.712 79.0593 352.595C72.7398 334.476 42.843 318.714 31.9453 316.901C31.8679 316.888 31.7939 316.86 31.7273 316.819C31.6608 316.777 31.603 316.723 31.5574 316.659C31.5117 316.596 31.479 316.524 31.4613 316.447C31.4435 316.371 31.4409 316.292 31.4537 316.214C31.4664 316.137 31.4943 316.063 31.5357 315.997C31.5771 315.93 31.6312 315.872 31.695 315.827C31.7587 315.781 31.8308 315.748 31.9071 315.73C31.9834 315.713 32.0625 315.71 32.1399 315.723C43.2834 317.566 73.7743 333.677 80.2781 352.195C80.3055 352.27 80.3177 352.349 80.3139 352.428C80.3101 352.508 80.2904 352.586 80.2561 352.657C80.2217 352.729 80.1733 352.793 80.1137 352.845C80.0542 352.898 79.9847 352.938 79.9094 352.963C79.8173 352.995 79.7193 353.006 79.6226 352.994Z" fill="white"/>
<path d="M52.7471 343.056C52.6327 343.046 52.5235 343.004 52.4327 342.934C52.3419 342.863 52.2734 342.768 52.2355 342.66C52.1976 342.552 52.1919 342.435 52.219 342.323C52.2462 342.212 52.3051 342.11 52.3886 342.031C57.2771 338.65 63.0582 336.793 69.0014 336.695C69.1469 336.714 69.2804 336.786 69.3772 336.896C69.4739 337.006 69.5272 337.148 69.5272 337.294C69.5272 337.441 69.4739 337.583 69.3772 337.693C69.2804 337.803 69.1469 337.875 69.0014 337.894C63.3165 338.031 57.7927 339.81 53.0954 343.015C52.9857 343.062 52.8647 343.076 52.7471 343.056Z" fill="white"/>
<path d="M79.9505 367.008C79.3064 366.57 78.7743 365.987 78.3971 365.305C78.0199 364.624 77.8082 363.863 77.7792 363.085V149.648C77.8238 148.846 78.0565 148.065 78.4586 147.37C78.8608 146.674 79.4209 146.083 80.0939 145.644L331.191 0.665687C331.858 0.245758 332.627 0.0158693 333.416 0.000792463C334.204 -0.0142844 334.981 0.186022 335.664 0.580128C336.347 0.974234 336.909 1.5472 337.291 2.23729C337.672 2.92737 337.858 3.70842 337.828 4.49626V217.943C337.783 218.745 337.551 219.526 337.148 220.222C336.746 220.917 336.186 221.509 335.513 221.948L84.4161 366.926C83.7298 367.287 82.9685 367.483 82.193 367.497C81.4176 367.511 80.6496 367.343 79.9505 367.008Z" fill="#455A64"/>
<path d="M83.9756 367.119H83.8834C83.8134 367.161 83.7374 367.192 83.6581 367.211H83.4839C83.3811 367.247 83.2746 367.271 83.1664 367.283C83.0977 367.311 83.0252 367.328 82.9514 367.334L82.6031 367.385C81.6892 367.509 80.7593 367.348 79.9402 366.924C79.297 366.489 78.7659 365.907 78.3904 365.227C78.0148 364.547 77.8053 363.788 77.7791 363.012V177.004L82.1217 179.513V365.583C82.1217 366.607 82.6441 367.242 83.402 367.242C83.5038 367.257 83.6074 367.257 83.7093 367.242C83.8038 367.215 83.8936 367.173 83.9756 367.119Z" fill="#BA68C8"/>
<path opacity="0.81" d="M83.9756 367.119H83.8834C83.8134 367.161 83.7374 367.192 83.6581 367.211H83.4839C83.3811 367.247 83.2746 367.271 83.1664 367.283C83.0977 367.311 83.0252 367.328 82.9514 367.334L82.6031 367.385C81.6892 367.509 80.7593 367.348 79.9402 366.924C79.297 366.489 78.7659 365.907 78.3904 365.227C78.0148 364.547 77.8053 363.788 77.7791 363.012V177.004L82.1217 179.513V365.583C82.1217 366.607 82.6441 367.242 83.402 367.242C83.5038 367.257 83.6074 367.257 83.7093 367.242C83.8038 367.215 83.8936 367.173 83.9756 367.119Z" fill="#E0E0E0"/>
<path d="M82.1115 179.513L77.7688 177.004V218.331L82.1115 220.861V179.513Z" fill="#BA68C8"/>
<path opacity="0.15" d="M82.1115 179.513L77.7688 177.004V218.331L82.1115 220.861V179.513Z" fill="black"/>
<path d="M82.7773 149.873C82.3674 150.562 82.1384 151.344 82.1115 152.146V179.513L77.7688 177.004V149.647C77.7637 149.555 77.7637 149.463 77.7688 149.371C77.7887 149.178 77.8195 148.986 77.861 148.797C77.9887 148.296 78.1815 147.814 78.4346 147.363L82.7773 149.873Z" fill="#263238"/>
<path d="M337.828 4.50358V16.8556L153.766 123.118C152.496 123.856 151.461 123.251 151.461 121.787V117.106C151.461 115.641 150.437 115.058 149.146 115.775L93.0911 148.15C92.4181 148.589 91.8579 149.18 91.4558 149.876C91.0537 150.572 90.8209 151.352 90.7763 152.155V156.825C90.7329 157.627 90.5017 158.407 90.1014 159.102C89.7011 159.798 89.1429 160.39 88.4718 160.83L82.1115 164.537V152.247C82.1549 151.445 82.3861 150.665 82.7864 149.97C83.1867 149.274 83.7449 148.682 84.4159 148.242L335.523 3.1721C336.793 2.43467 337.828 3.02871 337.828 4.50358Z" fill="#37474F"/>
<path d="M337.838 217.95C337.792 218.751 337.558 219.529 337.156 220.223C336.754 220.917 336.195 221.507 335.523 221.945L84.4159 366.923C83.1459 367.65 82.1115 367.056 82.1115 365.581V164.537L88.4718 160.871C89.7419 160.133 91.8108 148.928 93.0911 148.191L148.204 116.368C149.484 115.631 152.496 123.907 153.766 123.169L337.828 16.8555V217.95H337.838Z" fill="#BA68C8"/>
<path opacity="0.9" d="M337.838 217.95C337.792 218.751 337.558 219.529 337.156 220.223C336.754 220.917 336.195 221.507 335.523 221.945L84.4159 366.923C83.1459 367.65 82.1115 367.056 82.1115 365.581V164.537L88.4718 160.871C89.7419 160.133 91.8108 148.928 93.0911 148.191L148.204 116.368C149.484 115.631 152.496 123.907 153.766 123.169L337.828 16.8555V217.95H337.838Z" fill="white"/>
<g opacity="0.4">
<path d="M336.804 18.6274V217.95C336.754 218.565 336.566 219.161 336.254 219.693C335.942 220.225 335.513 220.679 335.001 221.023L83.904 366.032C83.749 366.136 83.5683 366.196 83.3816 366.206C83.146 366.206 83.1358 365.694 83.1358 365.581V165.08L88.9841 161.7C89.8854 161.178 90.4589 159.386 91.7494 154.777C92.218 152.791 92.8624 150.851 93.675 148.979L148.337 117.423C148.992 118.315 149.58 119.253 150.099 120.23C151.584 122.831 152.404 124.183 153.592 124.183C153.831 124.183 154.067 124.123 154.278 124.009L336.804 18.6274ZM337.828 16.8555L153.766 123.118C153.709 123.132 153.649 123.132 153.592 123.118C152.301 123.118 149.679 116.225 148.378 116.225C148.321 116.21 148.261 116.21 148.204 116.225L93.0912 148.15C91.8109 148.887 89.742 160.092 88.472 160.83L82.1116 164.537V365.581C82.1116 366.605 82.6339 367.23 83.3816 367.23C83.7434 367.215 84.0955 367.109 84.4058 366.923L335.523 221.945C336.195 221.507 336.754 220.917 337.156 220.223C337.558 219.529 337.792 218.751 337.838 217.95V16.8555H337.828Z" fill="#BA68C8"/>
</g>
<path d="M82.1115 179.513V220.861L337.828 73.2407V31.8828L82.1115 179.513Z" fill="#BA68C8"/>
<path d="M337.828 16.8555V31.8807L82.1115 179.511V164.537L86.8536 161.792C88.1236 161.055 88.5538 159.928 89.1581 157.788L90.7763 152.196C91.2782 150.249 91.8005 148.928 93.0911 148.191L148.204 116.368C149.484 115.631 150.488 115.549 151.461 117.157L153.438 120.742C154.155 122.002 154.524 122.739 155.794 122.002L337.828 16.8555Z" fill="#F0F0F0"/>
<path d="M326.992 12.25C328.6 11.3282 329.9 12.0758 329.9 13.9297C329.846 14.9391 329.554 15.9214 329.048 16.797C328.543 17.6725 327.838 18.4166 326.992 18.9688C325.394 19.8906 324.093 19.1429 324.093 17.2891C324.148 16.281 324.439 15.2998 324.943 14.4246C325.446 13.5494 326.148 12.8046 326.992 12.25Z" fill="#BA68C8"/>
<path d="M316.545 18.2812C318.142 17.3594 319.443 18.1071 319.443 19.9609C319.388 20.9691 319.097 21.9502 318.593 22.8254C318.09 23.7006 317.388 24.4455 316.545 25.0001C314.936 25.9219 313.636 25.1742 313.636 23.3204C313.69 22.3109 313.982 21.3286 314.488 20.4531C314.993 19.5776 315.698 18.8335 316.545 18.2812Z" fill="#BA68C8"/>
<path d="M306.067 24.3164C307.665 23.3946 308.976 24.1423 308.976 25.9961C308.918 27.005 308.625 27.9864 308.12 28.8615C307.615 29.7367 306.912 30.4812 306.067 31.0352C304.459 31.9673 303.158 31.2093 303.158 29.3555C303.213 28.3461 303.505 27.3638 304.01 26.4882C304.515 25.6127 305.22 24.8686 306.067 24.3164Z" fill="#BA68C8"/>
<path opacity="0.5" d="M92.7019 165.567L89.0762 167.615L90.4589 164.963C90.5136 164.862 90.5422 164.749 90.5422 164.635C90.5422 164.52 90.5136 164.408 90.4589 164.307C90.3565 164.184 90.1721 164.307 90.0492 164.502L88.0827 168.291C88.0784 168.339 88.0784 168.387 88.0827 168.435C88.0782 168.499 88.0782 168.564 88.0827 168.629C88.0764 168.687 88.0764 168.746 88.0827 168.803C88.0777 168.83 88.0777 168.858 88.0827 168.885L90.0492 170.401C90.0784 170.419 90.1121 170.429 90.1465 170.429C90.1809 170.429 90.2146 170.419 90.2438 170.401C90.3377 170.324 90.4115 170.226 90.4589 170.114C90.5613 169.869 90.5511 169.592 90.4589 169.5L89.0762 168.476L92.7019 166.427C92.7968 166.354 92.8732 166.259 92.9247 166.15C92.9763 166.042 93.0017 165.923 92.9989 165.802C92.9989 165.567 92.8658 165.485 92.7019 165.567Z" fill="#455A64"/>
<path opacity="0.5" d="M95.7335 163.82L99.3593 161.771L97.9766 160.747C97.8537 160.655 97.8434 160.378 97.9766 160.133C98.1097 159.887 98.2634 159.754 98.3863 159.846L100.353 161.362C100.379 161.38 100.4 161.405 100.414 161.433C100.425 161.487 100.425 161.543 100.414 161.597C100.425 161.662 100.425 161.727 100.414 161.792C100.414 161.792 100.414 161.792 100.414 161.843C100.398 161.893 100.378 161.941 100.353 161.986L98.3863 165.735C98.3437 165.827 98.2763 165.905 98.1917 165.96C98.1629 165.988 98.1243 166.004 98.0841 166.004C98.0439 166.004 98.0053 165.988 97.9766 165.96C97.919 165.861 97.8888 165.748 97.8888 165.633C97.8888 165.518 97.919 165.404 97.9766 165.305L99.3593 162.642L95.7335 164.741C95.5697 164.834 95.4468 164.741 95.4468 164.455C95.4403 164.334 95.463 164.213 95.5129 164.102C95.5628 163.992 95.6384 163.895 95.7335 163.82Z" fill="#455A64"/>
<path opacity="0.5" d="M107.604 153.379C107.604 153.164 107.389 153.195 107.297 153.43L106.795 154.649C105.945 154.557 104.921 155.376 104.224 156.851C103.333 158.746 103.333 160.948 104.224 161.86C104.443 162.064 104.726 162.186 105.025 162.205C105.324 162.224 105.621 162.138 105.863 161.962C106.587 161.476 107.153 160.789 107.492 159.985C107.548 159.889 107.578 159.78 107.578 159.668C107.578 159.556 107.548 159.447 107.492 159.35C107.369 159.238 107.184 159.35 107.072 159.586C106.406 160.999 105.31 161.634 104.644 160.989C103.979 160.344 103.968 158.664 104.644 157.24C105.115 156.216 105.802 155.632 106.406 155.602L106.027 156.513C105.935 156.749 106.027 156.974 106.17 156.872L107.655 155.909C107.712 155.858 107.756 155.794 107.785 155.723C107.813 155.652 107.825 155.576 107.819 155.499L107.604 153.379Z" fill="#455A64"/>
<path opacity="0.5" d="M146.617 123.182L147.938 120.375C148.015 120.243 148.056 120.093 148.056 119.94C148.056 119.787 148.015 119.637 147.938 119.505C147.784 119.361 147.528 119.505 147.375 119.832L146.053 122.629L144.722 121.359C144.568 121.205 144.312 121.359 144.159 121.686C144.081 121.818 144.04 121.969 144.04 122.122C144.04 122.275 144.081 122.425 144.159 122.557L145.48 123.827L144.159 126.643C144.081 126.775 144.04 126.926 144.04 127.079C144.04 127.232 144.081 127.382 144.159 127.514C144.199 127.547 144.25 127.566 144.302 127.566C144.354 127.566 144.405 127.547 144.445 127.514C144.572 127.435 144.67 127.316 144.722 127.176L146.053 124.37L147.375 125.65C147.413 125.683 147.462 125.7 147.513 125.7C147.564 125.7 147.612 125.683 147.651 125.65C147.779 125.569 147.879 125.451 147.938 125.312C148.015 125.18 148.056 125.03 148.056 124.877C148.056 124.724 148.015 124.573 147.938 124.441L146.617 123.182Z" fill="#455A64"/>
<path d="M112.449 156.819V152.148C112.496 151.347 112.731 150.568 113.135 149.874C113.539 149.18 114.1 148.591 114.774 148.154L322.536 28.3205C323.816 27.5831 324.851 28.1771 324.851 29.652V34.261C324.806 35.0633 324.574 35.8439 324.171 36.5396C323.769 37.2353 323.209 37.8266 322.536 38.2657L114.774 158.161C113.483 158.898 112.449 158.294 112.449 156.819Z" fill="white"/>
<path d="M319.371 38.5583C319.317 38.5691 319.262 38.5691 319.207 38.5583C319.099 38.5041 319.012 38.4151 318.96 38.3056C318.908 38.1961 318.894 38.0723 318.921 37.954L319.146 36.0183L318.204 35.3423C318.137 35.2932 318.083 35.2282 318.047 35.1531C318.011 35.078 317.995 34.9952 317.999 34.9121C317.999 34.7712 318.031 34.6321 318.091 34.5047C318.151 34.3773 318.239 34.2646 318.347 34.1747L319.699 33.1505C319.744 33.1096 319.777 33.0561 319.791 32.9968L320.396 31.0099C320.43 30.8649 320.505 30.7329 320.612 30.6294C320.719 30.5259 320.854 30.4554 321 30.4261C321.091 30.4229 321.181 30.4465 321.26 30.4938C321.338 30.541 321.401 30.61 321.44 30.6923L321.983 31.86L323.212 31.3888C323.299 31.3518 323.394 31.3428 323.486 31.363C323.578 31.3832 323.661 31.4316 323.724 31.5015C323.805 31.6248 323.848 31.7689 323.848 31.9163C323.848 32.0636 323.805 32.2078 323.724 32.3311L322.7 34.1747C322.689 34.2288 322.689 34.2845 322.7 34.3386L322.936 36.008C322.95 36.1446 322.933 36.2826 322.887 36.412C322.841 36.5414 322.767 36.6588 322.669 36.7557C322.615 36.8207 322.545 36.8715 322.467 36.9036C322.388 36.9357 322.303 36.9482 322.219 36.9401L321 36.7864L319.822 38.3637C319.765 38.4264 319.695 38.4762 319.618 38.5098C319.54 38.5433 319.456 38.5599 319.371 38.5583ZM318.593 34.7995L319.535 35.4754C319.614 35.5416 319.674 35.6279 319.709 35.7252C319.743 35.8226 319.75 35.9273 319.73 36.0285L319.617 37.6263L320.641 36.3358C320.7 36.2526 320.778 36.1855 320.87 36.1408C320.961 36.096 321.062 36.075 321.164 36.0797L322.383 36.2334C322.383 36.2334 322.434 36.0695 322.383 35.9875L322.147 34.3181C322.131 34.1333 322.17 33.9478 322.26 33.7855L323.284 31.9419L322.157 32.3721C322.104 32.3956 322.046 32.4081 321.987 32.409C321.928 32.4098 321.87 32.399 321.816 32.377C321.761 32.3551 321.712 32.3225 321.67 32.2812C321.629 32.2399 321.596 32.1907 321.573 32.1365L321.072 31.1123L320.467 33.0993C320.417 33.2819 320.309 33.4436 320.16 33.5602L318.808 34.5844C318.713 34.6275 318.636 34.704 318.593 34.7995Z" fill="#E0E0E0"/>
<g opacity="0.5">
<path d="M327.555 27.6857C327.377 27.6875 327.205 27.6302 327.063 27.5229C326.922 27.4156 326.821 27.2644 326.775 27.093C326.729 26.9217 326.742 26.7399 326.811 26.5765C326.879 26.4131 327.001 26.2772 327.155 26.1903L333.649 22.4417C333.74 22.3886 333.84 22.3539 333.944 22.3395C334.049 22.3252 334.155 22.3315 334.256 22.3581C334.358 22.3848 334.454 22.4312 334.537 22.4947C334.621 22.5583 334.692 22.6377 334.745 22.7285C334.798 22.8193 334.833 22.9196 334.847 23.0239C334.861 23.1281 334.855 23.2341 334.828 23.3358C334.802 23.4376 334.755 23.5331 334.692 23.617C334.628 23.7008 334.549 23.7713 334.458 23.8244L327.954 27.5833C327.832 27.6518 327.695 27.6871 327.555 27.6857Z" fill="#455A64"/>
<path d="M327.555 31.4453C327.414 31.4451 327.276 31.4081 327.154 31.3381C327.031 31.268 326.93 31.1673 326.858 31.0459C326.805 30.9546 326.771 30.8536 326.757 30.7489C326.744 30.6443 326.751 30.5379 326.778 30.436C326.806 30.3341 326.853 30.2386 326.918 30.1552C326.983 30.0718 327.064 30.002 327.155 29.95L333.649 26.1911C333.832 26.1071 334.039 26.0942 334.231 26.155C334.423 26.2158 334.585 26.3459 334.686 26.5199C334.788 26.6939 334.82 26.8993 334.778 27.0961C334.736 27.2929 334.622 27.4668 334.458 27.584L327.954 31.3327C327.833 31.4043 327.696 31.4431 327.555 31.4453Z" fill="#455A64"/>
<path d="M327.555 35.1935C327.414 35.1933 327.276 35.1563 327.154 35.0863C327.031 35.0162 326.93 34.9155 326.858 34.7941C326.806 34.7035 326.771 34.6034 326.758 34.4995C326.744 34.3956 326.751 34.29 326.779 34.1889C326.807 34.0878 326.854 33.9933 326.919 33.9108C326.983 33.8283 327.064 33.7595 327.155 33.7084L333.649 29.9495C333.74 29.8964 333.84 29.8617 333.944 29.8473C334.048 29.833 334.154 29.8393 334.256 29.8659C334.358 29.8926 334.454 29.939 334.537 30.0025C334.621 30.0661 334.692 30.1455 334.745 30.2363C334.798 30.3271 334.833 30.4274 334.847 30.5317C334.861 30.6359 334.855 30.7419 334.828 30.8436C334.802 30.9454 334.755 31.0409 334.692 31.1248C334.628 31.2086 334.549 31.2791 334.458 31.3322L327.954 35.0911C327.832 35.1596 327.695 35.1949 327.555 35.1935Z" fill="#455A64"/>
</g>
<path d="M82.1115 164.491V179.517L77.7688 177.007V161.992L82.1115 164.491Z" fill="#E0E0E0"/>
<path d="M259.122 103.757L257.441 104.74L262.302 86.5654L263.956 85.5981L268.817 98.0895L267.136 99.0719L263.181 88.4773L263.077 88.5377L259.122 103.757ZM259.742 97.4051L266.516 93.4453V95.0923L259.742 99.0522V97.4051ZM270.879 96.8841V81.5514L272.404 80.6596V86.3196L272.533 86.244C272.645 85.9789 272.8 85.6336 272.998 85.2083C273.201 84.7755 273.49 84.3272 273.865 83.8635C274.244 83.3922 274.756 82.9677 275.403 82.5899C276.239 82.1012 276.976 81.9125 277.613 82.0238C278.251 82.1351 278.749 82.5305 279.106 83.2098C279.464 83.8892 279.643 84.8328 279.643 86.0406C279.643 87.2585 279.464 88.4186 279.106 89.5211C278.749 90.6186 278.253 91.5971 277.62 92.4565C276.986 93.3109 276.256 93.98 275.429 94.4636C274.791 94.8364 274.28 95.0127 273.897 94.9923C273.513 94.9669 273.218 94.8575 273.011 94.6639C272.805 94.4654 272.645 94.2941 272.533 94.15L272.352 94.2558V96.0226L270.879 96.8841ZM272.378 90.2577C272.378 91.1262 272.488 91.8281 272.708 92.3634C272.927 92.8938 273.248 93.2227 273.671 93.3502C274.093 93.4727 274.61 93.3551 275.222 92.9974C275.86 92.6245 276.392 92.1188 276.818 91.4801C277.249 90.8339 277.572 90.1159 277.788 89.3261C278.007 88.5289 278.117 87.7209 278.117 86.9024C278.117 86.0938 278.01 85.4281 277.794 84.9052C277.583 84.3748 277.262 84.0459 276.831 83.9185C276.405 83.7835 275.868 83.905 275.222 84.2828C274.601 84.6456 274.08 85.1325 273.658 85.7438C273.235 86.35 272.917 87.0405 272.701 87.8153C272.486 88.5851 272.378 89.3992 272.378 90.2577ZM286.009 88.2782C285.113 88.8022 284.326 89.0148 283.65 88.9162C282.978 88.815 282.452 88.4311 282.073 87.7643C281.698 87.095 281.511 86.1665 281.511 84.9786C281.511 83.7807 281.698 82.6255 282.073 81.5129C282.452 80.3978 282.978 79.3967 283.65 78.5096C284.326 77.62 285.113 76.9133 286.009 76.3893C286.905 75.8654 287.689 75.654 288.362 75.7551C289.038 75.8537 289.564 76.2402 289.939 76.9145C290.318 77.5862 290.507 78.521 290.507 79.7189C290.507 80.9068 290.318 82.0558 289.939 83.1659C289.564 84.2734 289.038 85.272 288.362 86.1616C287.689 87.0487 286.905 87.7542 286.009 88.2782ZM286.009 86.691C286.69 86.293 287.25 85.7634 287.689 85.1022C288.129 84.441 288.454 83.7192 288.665 82.937C288.877 82.1547 288.982 81.3792 288.982 80.6106C288.982 79.842 288.877 79.1875 288.665 78.6471C288.454 78.1067 288.129 77.7603 287.689 77.608C287.25 77.4557 286.69 77.5785 286.009 77.9765C285.328 78.3745 284.768 78.9066 284.329 79.5728C283.889 80.239 283.564 80.9658 283.353 81.753C283.141 82.5403 283.036 83.3182 283.036 84.0868C283.036 84.8555 283.141 85.5075 283.353 86.0429C283.564 86.5783 283.889 86.9197 284.329 87.067C284.768 87.2144 285.328 87.089 286.009 86.691ZM299.092 75.6883V68.8904L300.618 67.9987V79.4982L299.092 80.39V78.4434L298.989 78.5039C298.756 79.2239 298.394 79.9321 297.903 80.6285C297.412 81.32 296.791 81.8848 296.042 82.3232C295.421 82.6859 294.87 82.8511 294.387 82.8188C293.904 82.7815 293.525 82.524 293.249 82.0464C292.974 81.5637 292.836 80.8333 292.836 79.855V72.548L294.361 71.6563V78.8435C294.361 79.682 294.564 80.2324 294.969 80.4948C295.378 80.7546 295.899 80.6993 296.533 80.329C296.912 80.1073 297.298 79.7696 297.69 79.3158C298.086 78.8594 298.418 78.3211 298.685 77.7007C298.957 77.0778 299.092 76.407 299.092 75.6883ZM307.729 63.8413V65.3387L302.584 68.3464V66.849L307.729 63.8413ZM304.083 63.2173L305.609 62.3256V73.2861C305.609 73.7852 305.671 74.123 305.796 74.2996C305.926 74.4685 306.089 74.5375 306.287 74.5065C306.49 74.468 306.703 74.3832 306.927 74.2522C307.095 74.154 307.233 74.0634 307.341 73.9805C307.449 73.8925 307.535 73.8222 307.599 73.7694L307.91 75.1752C307.806 75.2806 307.662 75.4099 307.477 75.5632C307.291 75.7214 307.057 75.8836 306.772 76.0499C306.341 76.3018 305.919 76.4413 305.505 76.4685C305.096 76.4932 304.756 76.3653 304.484 76.0848C304.217 75.8017 304.083 75.3258 304.083 74.657V63.2173ZM321.399 62.6477V55.8498L322.924 54.958V66.4576L321.399 67.3494V65.4028L321.295 65.4633C321.062 66.1833 320.7 66.8915 320.209 67.5879C319.718 68.2794 319.098 68.8442 318.348 69.2826C317.727 69.6453 317.176 69.8105 316.693 69.7782C316.211 69.7409 315.832 69.4834 315.556 69.0058C315.28 68.5231 315.142 67.7927 315.142 66.8144V59.5074L316.667 58.6157V65.8029C316.667 66.6414 316.87 67.1918 317.275 67.4541C317.684 67.714 318.206 67.6587 318.839 67.2884C319.218 67.0667 319.604 66.729 319.996 66.2752C320.392 65.8188 320.724 65.2805 320.991 64.6601C321.263 64.0372 321.399 63.3664 321.399 62.6477ZM332.75 51.7892L331.379 53.0394C331.293 52.8253 331.166 52.6426 330.998 52.4912C330.834 52.3324 330.61 52.2538 330.326 52.2553C330.042 52.2569 329.677 52.3874 329.234 52.6468C328.626 53.002 328.12 53.4602 327.715 54.0214C327.314 54.5751 327.114 55.099 327.114 55.5931C327.114 56.0324 327.252 56.2986 327.527 56.392C327.803 56.4853 328.234 56.4455 328.82 56.2726L330.294 55.8304C331.181 55.561 331.843 55.5562 332.278 55.8159C332.713 56.0705 332.931 56.5997 332.931 57.4032C332.931 58.0621 332.767 58.7467 332.439 59.4573C332.116 60.1653 331.664 60.839 331.082 61.4786C330.5 62.1181 329.824 62.6633 329.053 63.1142C328.04 63.7062 327.202 63.9416 326.538 63.8204C325.875 63.6993 325.455 63.2012 325.278 62.3262L326.726 61.0606C326.864 61.5988 327.124 61.9106 327.508 61.9959C327.896 62.0786 328.402 61.9374 329.027 61.5721C329.738 61.1565 330.302 60.6518 330.72 60.0581C331.142 59.4568 331.354 58.9092 331.354 58.415C331.354 58.0157 331.233 57.7519 330.992 57.6234C330.75 57.49 330.38 57.502 329.88 57.6594L328.225 58.1775C327.316 58.4595 326.648 58.4631 326.222 58.1884C325.799 57.9062 325.588 57.3683 325.588 56.5747C325.588 55.9259 325.746 55.2599 326.06 54.5769C326.379 53.8914 326.812 53.2465 327.359 52.642C327.911 52.0351 328.536 51.5276 329.234 51.1195C330.216 50.5452 330.987 50.3439 331.547 50.5155C332.112 50.6846 332.513 51.1092 332.75 51.7892Z" fill="#455A64"/>
<path opacity="0.1" d="M93.2037 230.613L163.926 189.777V305.073L92.9989 345.796L93.2037 230.613Z" fill="#BA68C8"/>
<path opacity="0.15" d="M179.515 182.903L264.832 133.648C266.552 132.624 267.904 133.403 267.904 135.318C267.84 136.377 267.529 137.407 266.995 138.325C266.462 139.243 265.721 140.023 264.832 140.603L179.504 190.41C177.794 191.435 176.432 190.615 176.432 188.639V188.28C176.489 187.205 176.798 186.159 177.334 185.225C177.869 184.291 178.616 183.496 179.515 182.903Z" fill="#BA68C8"/>
<path opacity="0.1" d="M178.623 197.832L319.802 116.324C321.031 115.618 322.024 116.119 322.024 117.441C321.97 118.187 321.74 118.91 321.354 119.55C320.968 120.191 320.436 120.732 319.802 121.128L178.623 202.635C177.405 203.342 176.411 202.84 176.411 201.519C176.465 200.774 176.693 200.052 177.077 199.411C177.462 198.771 177.991 198.23 178.623 197.832Z" fill="#BA68C8"/>
<path opacity="0.1" d="M178.623 207.476L319.802 125.969C321.031 125.262 322.024 125.764 322.024 127.085C321.97 127.831 321.74 128.554 321.354 129.195C320.968 129.836 320.436 130.376 319.802 130.772L178.623 212.28C177.405 212.986 176.411 212.484 176.411 211.153C176.466 210.41 176.695 209.69 177.08 209.051C177.464 208.413 177.993 207.873 178.623 207.476Z" fill="#BA68C8"/>
<path opacity="0.1" d="M178.623 217.112L319.802 135.605C321.031 134.899 322.024 135.4 322.024 136.732C321.968 137.476 321.738 138.197 321.352 138.836C320.966 139.475 320.435 140.014 319.802 140.409L178.623 221.896C177.405 222.602 176.411 222.1 176.411 220.769C176.471 220.03 176.702 219.314 177.086 218.68C177.47 218.045 177.996 217.509 178.623 217.112Z" fill="#BA68C8"/>
<path opacity="0.1" d="M178.623 226.757L319.802 145.25C321.031 144.543 322.024 145.045 322.024 146.367C321.97 147.113 321.74 147.836 321.354 148.476C320.968 149.117 320.436 149.657 319.802 150.054L178.623 231.561C177.405 232.268 176.411 231.766 176.411 230.444C176.465 229.699 176.693 228.978 177.077 228.337C177.462 227.696 177.991 227.155 178.623 226.757Z" fill="#BA68C8"/>
<path opacity="0.1" d="M178.623 236.411L277.133 179.054C278.351 178.348 279.345 178.85 279.345 180.181C279.29 180.924 279.061 181.644 278.676 182.283C278.292 182.922 277.763 183.461 277.133 183.858L178.623 241.214C177.405 241.921 176.411 241.419 176.411 240.088C176.466 239.344 176.695 238.624 177.08 237.986C177.464 237.347 177.993 236.808 178.623 236.411Z" fill="#BA68C8"/>
<path opacity="0.1" d="M178.623 255.695L319.802 174.188C321.031 173.481 322.024 173.983 322.024 175.304C321.97 176.05 321.74 176.773 321.354 177.414C320.968 178.054 320.436 178.595 319.802 178.991L178.623 260.498C177.405 261.205 176.411 260.703 176.411 259.382C176.465 258.637 176.693 257.915 177.077 257.275C177.462 256.634 177.991 256.093 178.623 255.695Z" fill="#BA68C8"/>
<path opacity="0.1" d="M178.623 265.343L319.802 183.836C321.031 183.129 322.024 183.631 322.024 184.952C321.97 185.699 321.74 186.421 321.354 187.062C320.968 187.703 320.436 188.243 319.802 188.64L178.623 270.147C177.405 270.854 176.411 270.352 176.411 269.02C176.466 268.277 176.695 267.557 177.08 266.918C177.464 266.28 177.993 265.74 178.623 265.343Z" fill="#BA68C8"/>
<path opacity="0.1" d="M178.623 274.984L319.802 193.476C321.031 192.77 322.024 193.272 322.024 194.603C321.968 195.347 321.738 196.068 321.352 196.707C320.966 197.346 320.435 197.885 319.802 198.28L178.623 279.797C177.405 280.504 176.411 280.002 176.411 278.671C176.466 277.926 176.695 277.205 177.08 276.565C177.464 275.924 177.992 275.383 178.623 274.984Z" fill="#BA68C8"/>
<path opacity="0.1" d="M178.623 284.627L230.51 254.351C231.729 253.645 232.723 254.147 232.723 255.478C232.667 256.221 232.438 256.941 232.054 257.58C231.67 258.218 231.141 258.758 230.51 259.155L178.634 289.431C177.415 290.138 176.421 289.636 176.421 288.314C176.474 287.57 176.701 286.849 177.083 286.209C177.466 285.568 177.993 285.026 178.623 284.627Z" fill="#BA68C8"/>
<path d="M367.284 229.271C374.792 204.915 382.094 188.866 374.648 183.898C367.725 185.189 364.621 188.62 363.146 197.756C361.6 207.333 358.384 220.688 356.509 228.39C354.889 234.827 352.571 241.067 349.596 247C349.147 247.822 348.421 248.457 347.547 248.793C345.233 249.704 344.127 250.841 342.242 252.234C340.757 253.258 339.671 253.402 339.743 253.842C339.865 254.336 340.175 254.763 340.608 255.031C341.04 255.299 341.561 255.387 342.058 255.276C343.17 255.066 344.254 254.722 345.284 254.252C344.398 256.496 343.019 258.512 341.249 260.151C337.613 263.224 338.176 266.225 344.004 266.573C346.052 266.696 350.938 264.791 355.434 257.14C356.954 254.288 358.292 251.343 359.439 248.322C362.573 240.476 365.779 234.187 367.284 229.271Z" fill="#FFA8A7"/>
<path d="M375.949 183.611C375.949 183.611 370.172 183.314 366.67 187.175C363.167 191.036 359.09 214.102 359.09 214.102C359.09 214.102 362.921 219.366 373.02 217.174L375.949 183.611Z" fill="#BA68C8"/>
<path opacity="0.3" d="M375.949 183.611C375.949 183.611 370.172 183.314 366.67 187.175C363.167 191.036 359.09 214.102 359.09 214.102C359.09 214.102 362.921 219.366 373.02 217.174L375.949 183.611Z" fill="black"/>
<path d="M402.999 347.238H395.245V361.065H402.999V347.238Z" fill="#FFA8A7"/>
<path d="M376.113 346.505L368.36 346.792L367.97 332.155L376.113 331.879V346.505Z" fill="#FFA8A7"/>
<path d="M404.094 227.526C404.094 235.238 402.958 297.306 402.958 297.306C403.132 299.528 405.129 303.625 404.699 312.147C404.115 323.72 403.326 354.139 403.326 354.139C401.996 354.825 400.527 355.197 399.031 355.229C397.534 355.261 396.051 354.951 394.692 354.324C394.692 354.324 387.359 312.177 385.976 300.696C384.757 290.689 382.699 256.972 382.699 256.972L378.499 296.169C379.394 300.388 379.718 304.707 379.462 309.012C379.093 314.318 376.605 341.962 376.605 341.962C375.264 342.752 373.761 343.226 372.21 343.348C370.659 343.471 369.101 343.238 367.653 342.668C367.653 342.668 363.238 301.044 363.146 296.169C363.044 290.618 365.727 227.434 365.727 227.434L404.094 227.526Z" fill="#37474F"/>
<path d="M395.245 357.092V355.934C394.498 356.272 392.777 363.104 389.704 366.054C387.256 368.368 383.917 371.052 383.067 373.643C382.217 376.234 387.717 377.832 390.001 377.412C392.654 376.921 397.263 374.975 398.41 373.162C399.557 371.349 400.11 368.696 401.053 367.375C401.995 366.054 404.125 364.579 404.658 363.042C404.945 362.203 404.658 360.359 404.217 358.802C403.777 357.245 403.47 355.801 402.999 355.934V356.815C401.911 357.717 400.539 358.203 399.127 358.188C397.99 358.218 395.235 357.983 395.245 357.092Z" fill="#263238"/>
<path d="M368.278 344.29C367.878 344.29 367.55 344.895 366.659 345.898C365.343 347.287 363.802 348.443 362.102 349.319C359.193 350.835 353.549 353.16 350.989 354.358C349.401 355.106 349.473 357.114 351.122 358.261C352.771 359.408 356.755 360.227 361.538 359.111C364.14 358.506 367.54 356.038 369.681 356.13C371.821 356.222 375.826 356.243 377.434 355.106C379.042 353.969 378.387 351.542 377.936 349.452C377.444 347.179 376.84 343.625 376.113 343.778V344.567C375.181 346.032 370.367 346.615 368.319 345.591L368.278 344.29Z" fill="#263238"/>
<path d="M382.699 256.984C378.663 255.666 374.975 253.461 371.903 250.531C371.903 250.531 373.952 254.628 380.179 258.377L378.858 293.384L382.699 256.984Z" fill="#263238"/>
<path d="M400.059 185.452C400.059 185.452 406.122 186.016 405.692 197.569L404.351 216.005V243.659C398.646 250.121 373.368 249.64 364.713 243.136C364.713 243.136 365.686 210.433 366.27 197.845C366.69 188.904 368.749 184.397 377.537 183.414L388.342 183.885L400.059 185.452Z" fill="#BA68C8"/>
<path opacity="0.3" d="M382.821 191.52L381.429 201.229L378.192 201.168L381.848 201.751L382.821 191.52Z" fill="black"/>
<path d="M390.913 159.419C390.976 162.545 389.796 165.568 387.632 167.825C385.467 170.081 382.496 171.386 379.37 171.453C372.989 171.453 368.104 166.056 367.817 159.429C367.315 147.681 372.989 147.395 379.37 147.395C382.494 147.462 385.464 148.766 387.628 151.02C389.792 153.274 390.973 156.295 390.913 159.419Z" fill="#263238"/>
<path d="M397.458 165.371C397.458 165.371 395.686 174.036 394.979 175.46C394.522 176.328 393.742 176.983 392.808 177.283L392.931 171.189L397.458 165.371Z" fill="#263238"/>
<path d="M395.266 152.958C395.266 152.958 396.536 152.641 397.888 154.751C399.045 156.553 399.311 160.609 397.488 165.372L394.16 165.771L395.266 152.958Z" fill="#263238"/>
<path d="M393.156 165.77C393.822 166.19 394.774 164.849 395.604 163.947C396.433 163.046 399.117 161.827 400.469 164.767C401.821 167.706 399.281 171.742 397.161 172.438C393.504 173.636 392.961 171.188 392.961 171.188L392.675 184.913C387.83 192.421 376.84 192.144 380.794 184.555V180.376C379.166 180.646 377.514 180.736 375.867 180.642C373.184 180.202 371.494 178 370.674 174.968C369.363 170.103 368.872 166.18 369.978 156.604C371.207 146.105 382.924 146.013 389.264 150.202C395.604 154.391 393.156 165.77 393.156 165.77Z" fill="#FFA8A7"/>
<path d="M392.736 181.837C391.609 184.144 389.99 186.175 387.994 187.788C386.297 189.042 384.328 189.877 382.248 190.226C383.964 191.389 385.371 192.953 386.345 194.784C387.564 197.447 396.095 190.103 396.013 184.89C396.013 184.89 394.682 179.656 392.838 179.328L392.736 181.837Z" fill="#263238"/>
<path d="M382.248 190.228C382.248 190.228 379.616 188.927 380.794 184.554V180.375L379.636 180.529C378.288 181.843 377.33 183.506 376.871 185.332C376.605 186.531 375.949 192.594 377.106 193.792C378.264 194.991 379.882 190.556 382.248 190.228Z" fill="#263238"/>
<path d="M388.67 154.296C388.969 154.23 389.281 154.248 389.571 154.347C390.595 154.798 390.78 157.891 390.954 158.782C391.538 161.783 392.029 166.873 393.156 166.894C393.494 166.894 394.774 164.692 395.604 163.903C396.761 162.807 395.266 152.913 395.266 152.913C395.571 152.059 395.629 151.136 395.433 150.25C395.238 149.364 394.796 148.551 394.16 147.905C392.111 145.528 388.813 144.996 385.833 144.832C382.32 144.637 378.755 144.904 375.293 144.135C374.206 143.833 373.101 143.597 371.985 143.429C371.938 143.409 371.888 143.398 371.837 143.398C371.786 143.398 371.735 143.409 371.688 143.429C371.576 143.521 371.596 143.695 371.627 143.838C371.844 144.876 372.209 145.876 372.712 146.809C370.652 146.646 368.617 146.244 366.649 145.61C366.536 145.575 366.414 145.575 366.301 145.61C366.065 145.682 366.024 145.989 366.045 146.235C366.178 148.714 367.356 152.462 369.373 153.917C371.162 155.088 373.239 155.743 375.375 155.812C380.804 156.016 384.143 154.869 388.67 154.296Z" fill="#263238"/>
<path d="M395.266 153.48L399.311 151.217C399.188 150.938 399.007 150.688 398.782 150.483C398.556 150.279 398.29 150.123 398.001 150.027C397.712 149.93 397.406 149.895 397.102 149.924C396.799 149.952 396.505 150.044 396.239 150.193C395.7 150.525 395.304 151.044 395.124 151.651C394.945 152.257 394.995 152.909 395.266 153.48Z" fill="#263238"/>
<path d="M380.804 180.377C380.804 180.377 386.796 179.117 388.895 177.959C390.139 177.275 391.149 176.233 391.794 174.969C391.481 176.24 390.921 177.438 390.145 178.492C388.619 180.54 380.804 182.036 380.804 182.036V180.377Z" fill="#F28F8F"/>
<path d="M382.248 164.213C382.27 164.444 382.358 164.664 382.502 164.846C382.647 165.027 382.84 165.163 383.06 165.237C383.28 165.311 383.517 165.319 383.742 165.261C383.966 165.203 384.169 165.08 384.325 164.909C384.482 164.738 384.585 164.525 384.623 164.296C384.661 164.067 384.632 163.832 384.539 163.62C384.446 163.407 384.293 163.226 384.099 163.099C383.905 162.972 383.678 162.903 383.446 162.902C383.281 162.908 383.118 162.946 382.968 163.015C382.817 163.084 382.682 163.183 382.57 163.305C382.459 163.427 382.373 163.57 382.317 163.726C382.262 163.883 382.238 164.048 382.248 164.213Z" fill="#263238"/>
<path d="M384.143 159.032L386.713 160.507C386.899 160.152 386.949 159.742 386.852 159.353C386.756 158.964 386.521 158.624 386.191 158.397C386.019 158.287 385.825 158.216 385.623 158.188C385.42 158.161 385.214 158.178 385.019 158.239C384.824 158.299 384.645 158.401 384.493 158.539C384.342 158.676 384.222 158.844 384.143 159.032Z" fill="#263238"/>
<path d="M381.347 172.859L378.602 173.884C378.656 174.072 378.748 174.248 378.873 174.399C378.998 174.55 379.153 174.675 379.327 174.764C379.502 174.853 379.693 174.906 379.889 174.918C380.085 174.931 380.281 174.903 380.466 174.836C380.831 174.673 381.123 174.382 381.285 174.017C381.448 173.652 381.47 173.239 381.347 172.859Z" fill="#F28F8F"/>
<path d="M371.217 160.127L373.563 158.243C373.457 158.077 373.317 157.937 373.153 157.83C372.989 157.723 372.804 157.652 372.61 157.622C372.416 157.592 372.218 157.603 372.029 157.656C371.841 157.708 371.665 157.8 371.514 157.925C371.201 158.19 370.997 158.562 370.943 158.969C370.888 159.376 370.986 159.788 371.217 160.127Z" fill="#263238"/>
<path d="M372.252 163.854C372.245 164.018 372.27 164.181 372.327 164.335C372.384 164.488 372.47 164.629 372.582 164.749C372.693 164.869 372.827 164.966 372.976 165.034C373.125 165.102 373.286 165.139 373.45 165.144C373.795 165.144 374.126 165.007 374.37 164.764C374.614 164.52 374.751 164.189 374.751 163.844C374.751 163.499 374.614 163.168 374.37 162.924C374.126 162.68 373.795 162.543 373.45 162.543C373.118 162.562 372.807 162.709 372.583 162.954C372.359 163.199 372.24 163.522 372.252 163.854Z" fill="#263238"/>
<path d="M378.684 162.848L378.54 170.437L374.228 169.444L378.684 162.848Z" fill="#F28F8F"/>
<path d="M411.858 170.48C413.589 168.186 417.092 173.276 418.71 176.79C420.328 180.303 420.359 182.29 419.028 183.682C417.696 185.075 415.187 184.236 412.678 180.907C410.168 177.578 410.865 172.17 411.858 170.48Z" fill="#BA68C8"/>
<path opacity="0.5" d="M411.858 170.48C413.589 168.186 417.092 173.276 418.71 176.79C420.328 180.303 420.359 182.29 419.028 183.682C417.696 185.075 415.187 184.236 412.678 180.907C410.168 177.578 410.865 172.17 411.858 170.48Z" fill="black"/>
<path d="M424.087 171.156C417.942 185.495 409.39 193.576 405.549 202.805C400.52 202.467 396.597 190.309 400.346 185.116C400.346 185.116 415.074 169.169 416.406 162.901C417.594 157.34 419.181 148.163 419.048 143.441C418.995 142.672 418.672 141.946 418.136 141.393C416.59 139.723 416.59 138.392 415.596 136.558C414.828 135.124 413.978 134.592 414.224 134.264C414.542 133.923 414.978 133.715 415.443 133.681C415.908 133.647 416.369 133.789 416.733 134.08C417.444 134.599 418.081 135.213 418.628 135.903C418.817 134.062 418.517 132.203 417.758 130.515C416.047 126.644 416.467 124.677 421.68 126.05C424.958 126.92 427.006 129.645 427.498 137.5C427.725 140.77 427.746 144.051 427.559 147.323C426.986 153.376 426.627 159.685 425.88 164.734C425.557 166.942 424.955 169.1 424.087 171.156Z" fill="#FFA8A7"/>
<path d="M398.81 185.289L411.797 170.438C411.797 170.438 410.25 174.053 413.63 179.328C417.01 184.602 419.017 183.681 419.017 183.681C419.017 183.681 411.346 194.875 409.297 198.624C407.249 202.373 405.108 205.537 405.108 205.537C404.882 205.975 404.53 206.334 404.097 206.57C403.664 206.805 403.171 206.906 402.681 206.859C400.776 206.859 395.727 198.399 398.81 185.289Z" fill="#BA68C8"/>
<path opacity="0.3" d="M398.81 185.289L411.797 170.438C411.797 170.438 410.25 174.053 413.63 179.328C417.01 184.602 419.017 183.681 419.017 183.681C419.017 183.681 411.346 194.875 409.297 198.624C407.249 202.373 405.108 205.537 405.108 205.537C404.882 205.975 404.53 206.334 404.097 206.57C403.664 206.805 403.171 206.906 402.681 206.859C400.776 206.859 395.727 198.399 398.81 185.289Z" fill="black"/>
<path d="M293.418 218.672L299.532 226.814L292.957 234.342L284.487 224.438L293.418 218.672Z" fill="#F28F8F"/>
<path d="M273.394 200.152C278.73 200.398 281.27 201.177 284.067 204.516C286.863 207.854 300.833 228.042 300.833 228.042C300.833 228.042 298.365 234.965 292.957 234.371L283.134 224.242L273.394 200.152Z" fill="#455A64"/>
<path d="M247.215 369.273C246.836 371.397 246.63 373.548 246.601 375.706C246.529 379.598 245.812 380.99 245.72 384.186C245.607 387.842 246.242 389.215 247.768 391.263C249.294 393.312 253.145 395.186 254.794 391.714C256.443 388.242 256.228 385.968 255.696 382.373C255.163 378.778 255.081 376.617 254.774 373.79C254.487 371.291 254.159 369.396 254.159 369.396L247.215 369.273Z" fill="#263238"/>
<path d="M258.287 338.661L245.433 338.426C245.628 347.009 246.99 361.286 247.215 369.326C247.215 370.842 247.215 381.095 247.748 384.219C248.608 388.899 254.159 388.264 254.456 385.468C254.753 382.672 254.098 370.689 254.118 369.449C254.067 364.328 256.484 350.829 257.754 341.56C257.816 341.058 258.226 339.051 258.287 338.661Z" fill="#FFBDA7"/>
<path d="M277.163 362.605C277.163 362.605 276.508 362.605 276.395 363.179C276.282 363.753 276.241 364.838 275.975 365.903C275.538 367.573 275.386 369.304 275.525 371.025C275.74 372.223 278.474 374.005 280.349 374.323C282.223 374.64 284.855 376.484 286.32 377.866C288.672 379.808 291.581 380.949 294.626 381.123C297.699 381.123 299.921 380.099 300.946 378.419C301.97 376.74 300.014 376.545 296.449 374.23L293.674 372.428C288.03 368.741 285.961 366.764 284.363 363.077L277.163 362.605Z" fill="#263238"/>
<path d="M284.405 360.597C284.312 357.934 285.664 338.371 285.664 338.371L274.613 339.621C277.235 355.209 277.44 360.525 277.143 362.799C277.087 363.009 277.063 363.226 277.071 363.444C277.071 366.517 280.502 368.114 283.216 370.132C284.241 370.931 286.975 373.389 290.15 374.464C292.199 375.171 295.999 375.489 296.48 374.188C293.244 371.709 288.819 368.473 286.238 365.636C284.968 364.263 284.497 363.239 284.405 360.597Z" fill="#FFBDA7"/>
<path d="M248.414 249.922C242.391 263.093 248.639 309.47 248.639 309.47C248.455 311.61 246.007 315.809 245.105 325.222C244.03 336.325 247.082 366.078 247.082 366.078C248.159 366.731 249.388 367.089 250.646 367.116C251.905 367.143 253.148 366.838 254.252 366.232C254.252 366.232 262.025 322.518 263.47 311.477C264.688 301.829 267.024 280.628 267.024 280.628L273.661 311.416C272.687 314.525 271.981 317.711 271.551 320.941C270.926 327.434 277.256 360.056 277.256 360.056C278.396 360.527 279.622 360.757 280.855 360.732C282.089 360.708 283.304 360.428 284.425 359.912C284.425 359.912 287.221 317.776 287.815 309.951C288.839 296.8 285.306 255.78 282.899 247.996L248.414 249.922Z" fill="#BA68C8"/>
<path opacity="0.5" d="M248.414 249.922C242.391 263.093 248.639 309.47 248.639 309.47C248.455 311.61 246.007 315.809 245.105 325.222C244.03 336.325 247.082 366.078 247.082 366.078C248.159 366.731 249.388 367.089 250.646 367.116C251.905 367.143 253.148 366.838 254.252 366.232C254.252 366.232 262.025 322.518 263.47 311.477C264.688 301.829 267.024 280.628 267.024 280.628L273.661 311.416C272.687 314.525 271.981 317.711 271.551 320.941C270.926 327.434 277.256 360.056 277.256 360.056C278.396 360.527 279.622 360.757 280.855 360.732C282.089 360.708 283.304 360.428 284.425 359.912C284.425 359.912 287.221 317.776 287.815 309.951C288.839 296.8 285.306 255.78 282.899 247.996L248.414 249.922Z" fill="black"/>
<path opacity="0.2" d="M267.003 280.625L268.959 268.396C268.959 268.396 277.235 266.686 280.994 263.152C278.402 266.192 275.01 268.445 271.202 269.656L269 279.079L272.851 307.583L267.003 280.625Z" fill="black"/>
<path d="M251.507 209.027L259.7 211.158V193.818C255.173 192.64 251.507 195.252 251.507 199.656V209.027Z" fill="#BA68C8"/>
<path opacity="0.6" d="M251.507 209.027L259.7 211.158V193.818C255.173 192.64 251.507 195.252 251.507 199.656V209.027Z" fill="black"/>
<path d="M267.73 196.293L264.791 196.231C255.819 196.016 248.711 188.283 248.905 178.942C248.905 168.762 256.792 160.506 266.563 160.414C276.334 160.363 284.302 168.608 284.353 178.748V179.772C284.108 189.123 276.682 196.487 267.73 196.293Z" fill="#BA68C8"/>
<path opacity="0.6" d="M267.73 196.293L264.791 196.231C255.819 196.016 248.711 188.283 248.905 178.942C248.905 168.762 256.792 160.506 266.563 160.414C276.334 160.363 284.302 168.608 284.353 178.748V179.772C284.108 189.123 276.682 196.487 267.73 196.293Z" fill="black"/>
<path d="M253.996 164.664C253.924 164.367 253.792 164.088 253.608 163.844C253.424 163.6 253.191 163.397 252.925 163.247C252.659 163.097 252.365 163.004 252.061 162.972C251.757 162.941 251.45 162.973 251.158 163.066L251.947 166.139C251.784 165.932 251.582 165.758 251.353 165.627C251.087 165.477 250.793 165.384 250.489 165.354C250.185 165.325 249.879 165.359 249.589 165.456C249.299 165.553 249.033 165.709 248.808 165.915C248.583 166.12 248.403 166.371 248.28 166.651L252.275 168.996C252.483 168.596 252.575 168.146 252.541 167.696C253.113 167.456 253.577 167.015 253.845 166.456C254.113 165.898 254.167 165.26 253.996 164.664Z" fill="#BA68C8"/>
<path opacity="0.6" d="M253.996 164.664C253.924 164.367 253.792 164.088 253.608 163.844C253.424 163.6 253.191 163.397 252.925 163.247C252.659 163.097 252.365 163.004 252.061 162.972C251.757 162.941 251.45 162.973 251.158 163.066L251.947 166.139C251.784 165.932 251.582 165.758 251.353 165.627C251.087 165.477 250.793 165.384 250.489 165.354C250.185 165.325 249.879 165.359 249.589 165.456C249.299 165.553 249.033 165.709 248.808 165.915C248.583 166.12 248.403 166.371 248.28 166.651L252.275 168.996C252.483 168.596 252.575 168.146 252.541 167.696C253.113 167.456 253.577 167.015 253.845 166.456C254.113 165.898 254.167 165.26 253.996 164.664Z" fill="black"/>
<path d="M258.84 200.86C256.082 201.234 253.346 201.761 250.646 202.437C253.821 210.221 248.844 222.246 248.844 222.246L253.545 236.718C250.298 243.365 247.625 246.663 246.519 252.081C249.51 257.919 270.619 263.491 284.364 252.849C284.364 252.849 283.923 238.07 282.172 229.456C286.668 220.679 285.941 218.098 285.019 215.035C282.878 207.917 278.556 205.182 273.404 200.164L270.332 199.836L258.84 200.86Z" fill="#37474F"/>
<path d="M254.067 242.515C256.618 239.903 262.025 239.156 262.025 239.156L257.058 236.329L251.507 222.922C253.836 218.358 254.987 213.285 254.856 208.163L251.66 207.395C252.05 214.492 248.834 222.256 248.834 222.256L253.535 236.728C250.288 243.375 247.615 246.673 246.509 252.091C248.557 256.086 259.096 259.957 269.953 258.585C255.409 257.602 251.619 245.045 254.067 242.515Z" fill="#263238"/>
<path d="M268.765 258.694L269.359 258.633C269.159 258.636 268.961 258.657 268.765 258.694Z" fill="#E6E6E6"/>
<path d="M277.757 169.488C279.519 171.107 281.721 174.609 281.547 184.852C281.393 193.557 278.7 195.718 277.337 196.343C275.975 196.968 273.363 196.61 270.813 196.179V199.785C270.813 199.785 274.173 203.513 273.968 205.93C273.763 208.347 269.174 209.32 265.866 206.954C263.535 205.189 261.466 203.103 259.721 200.758V189.809C259.721 189.809 258.225 191.335 255.624 189.041C253.576 187.136 252.797 183.919 254.426 182.178C254.844 181.766 255.357 181.463 255.919 181.295C256.482 181.128 257.077 181.101 257.653 181.217C258.228 181.333 258.767 181.589 259.22 181.962C259.673 182.335 260.028 182.814 260.253 183.356C264.157 182.948 267.957 181.852 271.479 180.12C273.459 179.167 275.113 177.649 276.23 175.756C277.348 173.864 277.879 171.683 277.757 169.488Z" fill="#FFBDA7"/>
<path d="M270.803 182.896C270.802 183.094 270.744 183.289 270.634 183.455C270.525 183.621 270.37 183.752 270.187 183.831C270.005 183.911 269.803 183.935 269.607 183.902C269.411 183.869 269.229 183.779 269.083 183.644C268.937 183.509 268.833 183.334 268.785 183.141C268.737 182.948 268.746 182.745 268.811 182.557C268.876 182.369 268.995 182.204 269.152 182.082C269.309 181.961 269.499 181.887 269.697 181.871C269.978 181.866 270.25 181.969 270.457 182.16C270.663 182.351 270.787 182.615 270.803 182.896Z" fill="#263238"/>
<path d="M271.202 190.145L273.937 191.036C273.893 191.222 273.812 191.398 273.698 191.552C273.584 191.706 273.439 191.835 273.273 191.931C273.107 192.027 272.923 192.088 272.732 192.11C272.542 192.132 272.349 192.115 272.165 192.06C271.793 191.921 271.487 191.646 271.308 191.291C271.13 190.936 271.092 190.526 271.202 190.145Z" fill="#F79776"/>
<path d="M280.697 178.972L278.208 178.122C278.247 177.956 278.321 177.8 278.424 177.664C278.528 177.528 278.659 177.416 278.808 177.334C278.958 177.252 279.123 177.202 279.293 177.188C279.463 177.174 279.634 177.195 279.796 177.252C280.132 177.377 280.409 177.622 280.576 177.939C280.742 178.257 280.785 178.625 280.697 178.972Z" fill="#263238"/>
<path d="M260.264 182.383V186.06C260.5 186.07 260.735 186.031 260.955 185.947C261.176 185.862 261.377 185.733 261.545 185.568C261.714 185.403 261.848 185.205 261.937 184.987C262.027 184.769 262.071 184.534 262.066 184.298C262.07 183.808 261.884 183.336 261.549 182.979C261.213 182.623 260.753 182.409 260.264 182.383Z" fill="#BA68C8"/>
<path opacity="0.6" d="M260.264 182.383V186.06C260.5 186.07 260.735 186.031 260.955 185.947C261.176 185.862 261.377 185.733 261.545 185.568C261.714 185.403 261.848 185.205 261.937 184.987C262.027 184.769 262.071 184.534 262.066 184.298C262.07 183.808 261.884 183.336 261.549 182.979C261.213 182.623 260.753 182.409 260.264 182.383Z" fill="black"/>
<path d="M279.796 182.539C279.818 182.833 279.723 183.125 279.531 183.35C279.339 183.574 279.066 183.714 278.771 183.737C278.546 183.759 278.319 183.713 278.119 183.605C277.92 183.497 277.757 183.332 277.653 183.131C277.548 182.93 277.505 182.702 277.531 182.477C277.557 182.252 277.649 182.039 277.796 181.867C277.944 181.695 278.139 181.57 278.358 181.51C278.576 181.449 278.808 181.456 279.023 181.528C279.238 181.6 279.426 181.735 279.564 181.915C279.702 182.095 279.782 182.312 279.796 182.539Z" fill="#263238"/>
<path d="M273.958 181.051L273.937 188.179L277.255 187.083L273.958 181.051Z" fill="#F79776"/>
<path d="M270.813 196.219C268.119 195.871 262.619 194.243 261.708 191.969C262.054 193.109 262.736 194.119 263.664 194.867C265.323 196.332 270.834 197.94 270.834 197.94L270.813 196.219Z" fill="#F79776"/>
<path d="M238.038 237.262C238.038 237.262 244.614 246.603 245.74 247.821C246.867 249.04 247.645 248.631 248.864 248.088C250.351 247.487 251.877 246.991 253.432 246.603C255.481 246.101 255.87 247.955 253.883 249.276C252.449 250.239 250.81 250.648 251.486 251.437C252.888 252.706 254.513 253.703 256.28 254.376C261.134 256.292 260.755 257.254 259.864 258.821C259.086 260.194 256.792 263.144 248.147 259.661C244.562 258.217 239.523 254.131 237.147 251.468C233.716 247.668 228.359 240.857 228.359 240.857L238.038 237.262Z" fill="#FFBDA7"/>
<path d="M251.906 202.098C249.53 202.251 245.054 202.825 239.441 212.145C234.515 220.339 226.885 231.411 225.471 235.374C224.898 236.982 227.13 240.311 230.008 243.722C233.931 243.548 237.506 240.834 239.359 238.662C238.873 237.507 238.269 236.406 237.557 235.374L249.069 222.244C249.069 222.244 253.442 218.239 254.354 213.026C255.337 207.372 255.03 202.927 251.906 202.098Z" fill="#455A64"/>
<path d="M316.36 219.781L287.979 227.258L280.164 259.367L307.152 251.532L316.36 219.781Z" fill="#BA68C8"/>
<path opacity="0.25" d="M316.36 219.781L287.979 227.258L280.164 259.367L307.152 251.532L316.36 219.781Z" fill="black"/>
<g opacity="0.1">
<path d="M303.537 242.516C304.012 243.507 304.769 244.337 305.712 244.901C306.655 245.466 307.744 245.74 308.842 245.691L309.047 244.984L303.537 242.516Z" fill="black"/>
</g>
<g opacity="0.1">
<path d="M307.808 224.875L308.043 223.789C308.177 223.195 306.507 223.164 304.326 223.789L300.137 224.813C297.955 225.387 296.04 226.329 295.947 226.923L295.722 228.009L307.808 224.875Z" fill="black"/>
</g>
<path d="M309.99 220.812C310.071 220.433 309.395 220.33 308.484 220.587L306.825 221.047C306.825 221.047 307.316 218.702 303.65 219.521C302.665 219.666 301.735 220.063 300.949 220.673C300.163 221.283 299.548 222.086 299.164 223.004L297.402 223.506C296.378 223.782 295.538 224.304 295.425 224.673L295.21 225.349L309.836 221.498L309.99 220.812Z" fill="#37474F"/>
<path d="M307.972 221.962C306.64 222.29 306.077 222.464 305.923 223.386C305.77 224.308 305.596 225.209 305.596 225.209L299.133 226.92C299.133 226.92 299.45 225.588 299.553 225.076C299.655 224.564 299.43 224.236 298.395 224.513L298.313 224.103L308.453 221.512L307.972 221.962Z" fill="#37474F"/>
<path d="M308.197 224.969L308.433 223.883C308.566 223.289 306.896 223.258 304.715 223.883L300.526 224.907C298.344 225.481 296.429 226.423 296.337 227.017L296.111 228.103L308.197 224.969Z" fill="#37474F"/>
<path d="M313.369 230.094C313.369 230.094 312.345 233.73 312.069 234.591C311.792 235.451 308.638 237.018 306.558 237.591C304.479 238.165 302.185 238.841 303.178 241.76C304.08 244.454 307.521 245.068 309.262 244.986C311.003 244.904 313.41 243.245 314.383 240.551C315.582 237.11 314.936 233.443 315.408 231.436C315.879 229.428 314.414 228.896 313.369 230.094Z" fill="#FFBDA7"/>
<path d="M205.857 230.943C201.965 227.02 200.572 228.546 200.081 232.848C199.899 234.652 199.461 236.421 198.78 238.102C198.659 237.209 198.414 236.337 198.053 235.511C197.882 235.064 197.548 234.699 197.119 234.488C196.689 234.277 196.196 234.236 195.738 234.374C195.359 234.527 195.83 235.398 195.738 237.108C195.666 239.239 194.97 240.417 195.472 242.68C195.647 243.532 195.512 244.418 195.093 245.179C193.044 249.071 186.295 256.261 181.563 261.444L163.588 245.21C157.443 239.679 155.456 237.19 149.525 237.59C151.381 238.294 153.089 239.335 154.565 240.662C157.32 242.987 156.664 256.292 156.664 256.292C156.664 256.292 177.067 270.918 179.197 272.311C179.504 272.516 179.822 272.7 180.129 272.874C181.136 273.399 182.291 273.568 183.407 273.355C184.522 273.141 185.533 272.556 186.274 271.696C190.627 266.719 196.977 256.917 200.613 251.826C202.276 249.362 203.758 246.782 205.048 244.104C208.694 236.863 208.295 233.401 205.857 230.943Z" fill="#914F4E"/>
<path d="M150.16 237.259C151.593 236.998 153.065 237.046 154.478 237.4C155.891 237.753 157.213 238.403 158.354 239.308C161.857 241.971 176.79 255.695 176.79 255.695C176.79 255.695 177.2 262.957 169.621 267.279L151.318 254.374L150.16 237.259Z" fill="#BA68C8"/>
<path opacity="0.3" d="M150.16 237.259C151.593 236.998 153.065 237.046 154.478 237.4C155.891 237.753 157.213 238.403 158.354 239.308C161.857 241.971 176.79 255.695 176.79 255.695C176.79 255.695 177.2 262.957 169.621 267.279L151.318 254.374L150.16 237.259Z" fill="black"/>
<path d="M132.493 401.094H124.739V414.921H132.493V401.094Z" fill="#914F4E"/>
<path d="M151.625 400.355L159.378 400.631L159.768 385.995L151.625 385.719V400.355Z" fill="#914F4E"/>
<path d="M123.643 281.376C123.643 289.088 124.78 351.166 124.78 351.166C124.606 353.378 122.609 357.475 123.039 365.997C123.623 377.581 124.412 407.99 124.412 407.99C125.743 408.672 127.213 409.042 128.709 409.072C130.205 409.102 131.688 408.791 133.046 408.164C133.046 408.164 140.379 366.017 141.772 354.546C142.981 344.529 145.039 310.812 145.039 310.812L149.239 350.019C148.344 354.234 148.02 358.551 148.276 362.852C148.645 368.158 151.133 395.801 151.133 395.801C152.474 396.595 153.979 397.072 155.532 397.196C157.085 397.32 158.645 397.088 160.095 396.518C160.095 396.518 164.499 354.884 164.592 350.019C164.694 344.468 162.011 281.273 162.011 281.273L123.643 281.376Z" fill="#37474F"/>
<path d="M132.493 410.925V409.777C133.24 410.115 134.961 416.947 138.034 419.886C140.482 422.211 143.821 424.895 144.671 427.486C145.521 430.077 140.021 431.665 137.737 431.245C135.084 430.753 130.475 428.807 129.328 427.005C128.181 425.202 127.628 422.529 126.685 421.208C125.743 419.886 123.613 418.412 123.08 416.875C122.928 415.447 123.078 414.002 123.521 412.635C123.879 411.211 124.268 409.644 124.739 409.777V410.658C125.833 411.554 127.207 412.036 128.621 412.021C129.748 412.061 132.503 411.826 132.493 410.925Z" fill="#263238"/>
<path d="M159.46 398.144C159.86 398.144 160.188 398.749 161.079 399.752C162.395 401.137 163.936 402.29 165.636 403.163C168.545 404.679 174.189 407.014 176.749 408.212C178.347 408.96 178.265 410.968 176.616 412.104C174.967 413.241 170.983 414.071 166.2 412.965C163.598 412.35 160.198 409.892 158.006 409.984C155.814 410.076 151.861 410.087 150.253 408.96C148.645 407.833 149.3 405.386 149.751 403.306C150.242 401.022 150.857 397.468 151.574 397.622V398.411C152.506 399.886 157.32 400.459 159.368 399.435L159.46 398.144Z" fill="#263238"/>
<path d="M145.039 310.828C149.074 309.51 152.763 307.305 155.835 304.375C155.835 304.375 153.786 308.472 147.559 312.221L148.88 347.238L145.039 310.828Z" fill="#263238"/>
<path d="M127.679 239.308C127.679 239.308 121.615 239.861 122.046 251.424L123.387 269.86L123.264 297.514C128.959 303.977 154.247 303.506 162.902 296.992C162.902 296.992 162.011 264.288 161.427 251.701C161.007 242.759 158.948 238.253 150.16 237.27L139.345 237.741L127.679 239.308Z" fill="#BA68C8"/>
<path opacity="0.3" d="M144.917 245.367L146.309 255.077L149.556 255.015L145.89 255.589L144.917 245.367Z" fill="black"/>
<path d="M108.434 279.003C111.578 253.705 118.819 241.107 127.638 239.652L127.013 255.835C123.341 264.465 120.528 273.436 118.615 282.618C117.457 288.845 116.115 299.671 116.464 304.987C116.533 305.924 116.932 306.806 117.59 307.476C119.331 309.248 119.854 310.784 121.021 312.781C121.943 314.348 122.886 314.902 122.64 315.281C122.323 315.679 121.863 315.938 121.358 316.003C120.854 316.068 120.343 315.934 119.936 315.629C119.012 314.974 118.166 314.214 117.416 313.365C117.304 315.776 117.738 318.182 118.686 320.402C120.735 324.662 120.407 326.905 114.692 325.646C111.107 324.867 108.546 321.088 107.522 312.269C107.253 308.978 107.195 305.674 107.348 302.375C107.737 293.946 107.809 284.062 108.434 279.003Z" fill="#914F4E"/>
<path d="M128.14 239.238C123.562 239.238 119.383 240.027 116.054 246.408C112.869 252.553 110.421 265.55 109.182 269.801C109.182 269.801 115.87 273.754 122.025 273.652L126.358 258.616C126.358 258.616 129.287 251.601 128.14 239.238Z" fill="#BA68C8"/>
<path opacity="0.3" d="M128.14 239.238C123.562 239.238 119.383 240.027 116.054 246.408C112.869 252.553 110.421 265.55 109.182 269.801C109.182 269.801 115.87 273.754 122.025 273.652L126.358 258.616C126.358 258.616 129.287 251.601 128.14 239.238Z" fill="black"/>
<path d="M137.593 213.2C137.686 215.463 138.441 217.649 139.766 219.486C141.091 221.323 142.926 222.731 145.044 223.533C147.162 224.335 149.47 224.497 151.679 223.999C153.889 223.501 155.903 222.364 157.471 220.73C159.04 219.096 160.093 217.037 160.501 214.809C160.909 212.581 160.653 210.282 159.765 208.199C158.877 206.115 157.396 204.339 155.506 203.09C153.616 201.841 151.401 201.176 149.136 201.176C146.012 201.243 143.042 202.547 140.878 204.801C138.714 207.055 137.533 210.076 137.593 213.2Z" fill="#263238"/>
<path d="M130.25 219.211C130.25 219.211 132.022 227.876 132.728 229.299C133.189 230.171 133.972 230.829 134.91 231.133L134.777 224.988L130.25 219.211Z" fill="#263238"/>
<path d="M132.472 206.8C132.472 206.8 131.161 206.534 129.85 208.583C128.693 210.385 128.437 214.441 130.25 219.204L133.578 219.603L132.472 206.8Z" fill="#263238"/>
<path d="M134.582 219.613C133.916 220.033 132.964 218.691 132.134 217.8C131.305 216.909 128.621 215.67 127.279 218.62C125.938 221.569 128.457 225.595 130.577 226.281C134.234 227.479 134.777 225.031 134.777 225.031L135.064 238.766C139.908 246.263 150.898 245.997 146.944 238.397V234.188C148.572 234.458 150.224 234.548 151.871 234.454C154.554 234.024 156.244 231.812 157.064 228.78C158.375 223.915 158.866 219.992 157.76 210.426C156.541 199.938 144.835 199.825 138.505 203.973C132.175 208.121 134.582 219.613 134.582 219.613Z" fill="#914F4E"/>
<path d="M135.002 235.685C136.129 237.991 137.748 240.023 139.744 241.636C141.443 242.888 143.41 243.726 145.49 244.084C143.776 245.245 142.37 246.805 141.393 248.631C140.184 251.304 131.643 243.961 131.724 238.748C131.724 238.748 133.066 233.514 134.9 233.176L135.002 235.685Z" fill="#263238"/>
<path d="M145.5 244.078C145.5 244.078 148.132 242.767 146.955 238.393V234.184L148.112 234.337C149.461 235.652 150.418 237.314 150.877 239.141C151.144 240.339 151.799 246.403 150.642 247.601C149.484 248.799 147.856 244.426 145.5 244.078Z" fill="#263238"/>
<path d="M134.582 220.789C134.244 220.789 132.964 218.587 132.134 217.799C130.977 216.703 132.472 206.799 132.472 206.799C132.171 205.944 132.114 205.022 132.31 204.136C132.505 203.251 132.945 202.438 133.578 201.79C135.166 199.977 137.808 199.742 142.315 199.045C144.114 198.824 145.899 198.499 147.661 198.072C149.522 197.376 151.312 196.505 153.008 195.471C153.541 195.125 154.18 194.98 154.81 195.061C155.101 195.159 155.361 195.332 155.564 195.562C155.767 195.792 155.907 196.071 155.968 196.372C156.07 196.972 156.07 197.585 155.968 198.185C156.537 197.655 157.294 197.373 158.071 197.399C158.849 197.426 159.584 197.76 160.116 198.328C160.619 198.927 160.946 199.654 161.062 200.428C161.178 201.201 161.077 201.992 160.771 202.712C160.117 204.145 159.046 205.348 157.699 206.164C152.035 209.994 145.347 208.929 138.996 208.212C138.696 208.145 138.383 208.166 138.095 208.273C137.071 208.724 136.887 211.807 136.712 212.698C136.2 215.668 135.709 220.769 134.582 220.789Z" fill="#263238"/>
<path d="M132.472 207.32L128.437 205.057C128.559 204.777 128.739 204.526 128.964 204.321C129.19 204.115 129.456 203.958 129.745 203.862C130.035 203.765 130.342 203.731 130.646 203.76C130.949 203.79 131.244 203.882 131.509 204.033C132.046 204.367 132.441 204.886 132.618 205.493C132.796 206.099 132.744 206.75 132.472 207.32Z" fill="#263238"/>
<path d="M146.934 234.185C146.934 234.185 140.943 232.925 138.843 231.768C137.597 231.087 136.586 230.044 135.944 228.777C136.257 230.049 136.817 231.246 137.593 232.301C139.119 234.349 146.934 235.855 146.934 235.855V234.185Z" fill="#783736"/>
<path d="M144.763 217.697C144.77 217.861 144.744 218.025 144.688 218.179C144.631 218.333 144.545 218.475 144.433 218.596C144.322 218.717 144.188 218.814 144.039 218.883C143.89 218.952 143.729 218.991 143.564 218.998C143.233 218.979 142.922 218.831 142.698 218.586C142.474 218.341 142.355 218.018 142.366 217.687C142.366 217.369 142.492 217.064 142.717 216.839C142.942 216.615 143.247 216.488 143.564 216.488C143.882 216.488 144.187 216.615 144.412 216.839C144.636 217.064 144.763 217.369 144.763 217.687V217.697Z" fill="#263238"/>
<path d="M142.704 212.494L140.133 213.969C139.948 213.604 139.907 213.183 140.017 212.789C140.127 212.394 140.38 212.055 140.727 211.839C140.898 211.743 141.087 211.685 141.282 211.666C141.477 211.648 141.674 211.67 141.86 211.732C142.046 211.794 142.217 211.893 142.362 212.024C142.507 212.156 142.624 212.316 142.704 212.494Z" fill="#263238"/>
<path d="M146.391 226.699L149.136 227.775C149.082 227.963 148.99 228.138 148.865 228.29C148.74 228.441 148.585 228.564 148.41 228.653C148.235 228.741 148.043 228.793 147.848 228.804C147.652 228.815 147.456 228.785 147.272 228.717C146.898 228.554 146.599 228.255 146.436 227.881C146.272 227.507 146.256 227.085 146.391 226.699Z" fill="#783736"/>
<path d="M156.767 213.927L154.063 212.616C154.129 212.432 154.233 212.265 154.368 212.125C154.504 211.985 154.667 211.875 154.848 211.803C155.029 211.73 155.223 211.696 155.418 211.704C155.613 211.712 155.803 211.761 155.978 211.847C156.343 212.035 156.626 212.351 156.772 212.735C156.918 213.119 156.916 213.544 156.767 213.927Z" fill="#263238"/>
<path d="M154.995 217.697C155.01 217.864 154.991 218.033 154.937 218.192C154.884 218.352 154.797 218.498 154.684 218.622C154.571 218.746 154.433 218.846 154.279 218.914C154.126 218.981 153.959 219.016 153.791 219.016C153.623 219.016 153.457 218.981 153.303 218.914C153.149 218.846 153.011 218.746 152.898 218.622C152.785 218.498 152.699 218.352 152.645 218.192C152.592 218.033 152.572 217.864 152.588 217.697C152.581 217.533 152.607 217.37 152.663 217.216C152.72 217.063 152.806 216.922 152.918 216.802C153.029 216.682 153.163 216.585 153.312 216.517C153.461 216.449 153.622 216.412 153.786 216.406C154.117 216.42 154.429 216.562 154.655 216.804C154.881 217.045 155.003 217.366 154.995 217.697Z" fill="#263238"/>
<path d="M148.184 216.766L148.317 224.355L152.629 223.372L148.184 216.766Z" fill="#783736"/>
<path d="M142.909 214.564C142.113 214.564 141.35 214.88 140.787 215.443C140.224 216.005 139.908 216.769 139.908 217.565C139.908 218.361 140.224 219.124 140.787 219.687C141.35 220.249 142.113 220.566 142.909 220.566H143.452C144.248 220.566 145.011 220.249 145.574 219.687C146.137 219.124 146.453 218.361 146.453 217.565C146.453 216.769 146.137 216.005 145.574 215.443C145.011 214.88 144.248 214.564 143.452 214.564H142.909ZM139.355 217.565C139.347 216.616 139.715 215.702 140.38 215.024C141.044 214.347 141.95 213.96 142.899 213.949H143.452C144.322 214.063 145.121 214.49 145.699 215.15C146.278 215.809 146.597 216.657 146.597 217.534C146.597 218.411 146.278 219.259 145.699 219.918C145.121 220.578 144.322 221.005 143.452 221.119H142.909C141.968 221.113 141.067 220.737 140.402 220.072C139.737 219.406 139.36 218.506 139.355 217.565Z" fill="#263238"/>
<path d="M153.694 214.564C152.898 214.564 152.135 214.88 151.572 215.443C151.009 216.005 150.693 216.769 150.693 217.565C150.693 218.361 151.009 219.124 151.572 219.687C152.135 220.249 152.898 220.566 153.694 220.566H154.237C155.033 220.566 155.796 220.249 156.359 219.687C156.922 219.124 157.238 218.361 157.238 217.565C157.238 216.769 156.922 216.005 156.359 215.443C155.796 214.88 155.033 214.564 154.237 214.564H153.694ZM150.15 217.565C150.142 216.616 150.51 215.702 151.175 215.024C151.839 214.347 152.745 213.96 153.694 213.949H154.237C155.107 214.063 155.906 214.49 156.484 215.15C157.063 215.809 157.382 216.657 157.382 217.534C157.382 218.411 157.063 219.259 156.484 219.918C155.906 220.578 155.107 221.005 154.237 221.119H153.694C152.758 221.105 151.865 220.726 151.207 220.061C150.548 219.397 150.176 218.5 150.171 217.565H150.15Z" fill="#263238"/>
<path d="M146.955 216.846C147.169 216.549 147.451 216.306 147.776 216.137C148.102 215.968 148.462 215.878 148.829 215.873C149.131 215.841 149.437 215.881 149.721 215.992C150.004 216.102 150.257 216.28 150.457 216.508L150.939 216.14C150.683 215.827 150.353 215.584 149.979 215.432C149.605 215.28 149.199 215.224 148.798 215.269C148.333 215.274 147.876 215.391 147.466 215.61C147.056 215.83 146.705 216.145 146.443 216.529L146.955 216.846Z" fill="#263238"/>
<path d="M139.683 216.816H133.578V217.421H139.683V216.816Z" fill="#263238"/>
</svg>
