<svg width="116" height="83" viewBox="0 0 116 83" fill="none" xmlns="http://www.w3.org/2000/svg">
<path d="M17.4 35.6029C23.7981 35.6029 29 30.3826 29 23.9619C29 17.5411 23.7981 12.3208 17.4 12.3208C11.0019 12.3208 5.8 17.5411 5.8 23.9619C5.8 30.3826 11.0019 35.6029 17.4 35.6029ZM98.6 35.6029C104.998 35.6029 110.2 30.3826 110.2 23.9619C110.2 17.5411 104.998 12.3208 98.6 12.3208C92.2019 12.3208 87 17.5411 87 23.9619C87 30.3826 92.2019 35.6029 98.6 35.6029ZM104.4 41.4235H92.8C89.61 41.4235 86.7281 42.7149 84.6256 44.8067C91.93 48.8265 97.1138 56.084 98.2375 64.7057H110.2C113.408 64.7057 116 62.1046 116 58.8851V53.0646C116 46.6438 110.798 41.4235 104.4 41.4235ZM58 41.4235C69.2194 41.4235 78.3 32.3107 78.3 21.0516C78.3 9.79247 69.2194 0.679688 58 0.679688C46.7806 0.679688 37.7 9.79247 37.7 21.0516C37.7 32.3107 46.7806 41.4235 58 41.4235ZM71.92 47.244H70.4156C66.6456 49.063 62.4588 50.1543 58 50.1543C53.5413 50.1543 49.3725 49.063 45.5844 47.244H44.08C32.5525 47.244 23.2 56.6297 23.2 68.198V73.4365C23.2 78.2566 27.0969 82.1673 31.9 82.1673H84.1C88.9031 82.1673 92.8 78.2566 92.8 73.4365V68.198C92.8 56.6297 83.4475 47.244 71.92 47.244ZM31.3744 44.8067C29.2719 42.7149 26.39 41.4235 23.2 41.4235H11.6C5.20188 41.4235 0 46.6438 0 53.0646V58.8851C0 62.1046 2.59187 64.7057 5.8 64.7057H17.7444C18.8863 56.084 24.07 48.8265 31.3744 44.8067Z" fill="#115ED1"/>
</svg>
