<svg width="720" height="561" viewBox="0 0 720 561" fill="none" xmlns="http://www.w3.org/2000/svg">
<path d="M720 323.066C720 508.677 720 447.802 720 561C439.034 561 162.57 561 0 561C0 388.541 650.5 419.989 720 0C720 221.094 720 137.456 720 323.066Z" fill="#F0EFEF"/>
<path d="M526.725 446.318C517.46 452.138 502.307 418.404 501.266 408.986C500.226 399.568 507.908 404.995 507.908 404.995C507.908 404.995 500.635 374.528 505.207 365.244C509.778 355.96 513.841 366.547 513.841 366.547C513.841 366.547 517.294 335.118 532.149 332.285C547.004 329.452 534.817 364.241 534.817 364.241C534.817 364.241 540.883 355.536 546.861 357.862C552.838 360.189 535.282 399.65 535.282 399.65C535.282 399.65 542.045 392.672 547.691 394.853C553.336 397.035 541.049 437.334 526.725 446.318Z" fill="#404B7C"/>
<path d="M524.888 444.067C524.757 444.066 524.631 444.022 524.532 443.943C524.432 443.863 524.366 443.753 524.346 443.633C524.235 443.033 513.597 383.246 530.412 338.615C530.431 338.546 530.465 338.481 530.512 338.424C530.56 338.368 530.619 338.321 530.687 338.288C530.754 338.254 530.829 338.234 530.905 338.228C530.982 338.223 531.059 338.232 531.131 338.256C531.203 338.279 531.27 338.317 531.326 338.366C531.382 338.415 531.426 338.474 531.456 338.54C531.487 338.606 531.502 338.677 531.501 338.749C531.5 338.82 531.484 338.891 531.452 338.956C514.737 383.329 525.32 442.857 525.43 443.457C525.443 443.524 525.441 443.593 525.425 443.66C525.409 443.726 525.379 443.789 525.337 443.845C525.295 443.901 525.241 443.948 525.18 443.985C525.118 444.021 525.049 444.045 524.976 444.057H524.888V444.067Z" fill="#BA68C8"/>
<path d="M521.456 397.095C521.34 397.093 521.228 397.057 521.135 396.992C510.619 389.827 509.191 372.086 509.125 371.332C509.12 371.264 509.129 371.196 509.152 371.131C509.175 371.067 509.212 371.007 509.26 370.956C509.308 370.904 509.366 370.862 509.431 370.832C509.496 370.801 509.567 370.783 509.64 370.779C509.712 370.774 509.785 370.783 509.855 370.804C509.924 370.826 509.988 370.86 510.042 370.904C510.097 370.949 510.143 371.003 510.175 371.064C510.208 371.125 510.227 371.192 510.232 371.259C510.232 371.435 511.66 388.928 521.489 395.948C523.283 394.914 532.913 388.276 539.344 368.334C539.365 368.266 539.401 368.202 539.448 368.147C539.495 368.092 539.554 368.046 539.62 368.012C539.686 367.978 539.759 367.956 539.834 367.949C539.909 367.941 539.986 367.947 540.058 367.967C540.131 367.986 540.199 368.019 540.258 368.063C540.317 368.108 540.366 368.162 540.403 368.224C540.439 368.286 540.462 368.354 540.47 368.424C540.479 368.494 540.472 368.566 540.451 368.633C533.212 391.057 522.231 396.795 521.766 397.033C521.672 397.082 521.564 397.103 521.456 397.095Z" fill="#BA68C8"/>
<path d="M522.763 427.68H522.597C516.21 425.84 511.35 414.333 511.151 413.847C511.11 413.722 511.122 413.588 511.183 413.471C511.244 413.353 511.351 413.262 511.481 413.215C511.611 413.168 511.756 413.168 511.885 413.217C512.015 413.265 512.121 413.357 512.181 413.475C512.181 413.589 516.907 424.682 522.674 426.615C523.881 425.788 530.157 421.022 534.983 408.203C535.04 408.085 535.143 407.991 535.27 407.94C535.397 407.889 535.54 407.885 535.671 407.928C535.802 407.97 535.91 408.058 535.976 408.172C536.041 408.286 536.058 408.418 536.024 408.544C530.489 423.1 523.349 427.442 523.051 427.628C522.961 427.669 522.862 427.687 522.763 427.68Z" fill="#BA68C8"/>
<path d="M523.582 368.92C523.506 368.917 523.432 368.9 523.364 368.87C523.295 368.84 523.234 368.797 523.183 368.744C520.139 365.457 519.453 355.077 519.42 354.643C519.416 354.575 519.426 354.507 519.449 354.442C519.473 354.378 519.51 354.319 519.559 354.268C519.607 354.217 519.665 354.176 519.731 354.146C519.796 354.116 519.868 354.099 519.94 354.095C520.013 354.091 520.086 354.1 520.155 354.122C520.223 354.144 520.287 354.179 520.341 354.224C520.396 354.269 520.44 354.324 520.472 354.385C520.504 354.446 520.523 354.513 520.527 354.581C520.527 354.684 521.158 364.123 523.648 367.617C525.143 366.129 530.058 360.918 531.806 354.777C531.825 354.709 531.858 354.645 531.904 354.589C531.949 354.533 532.006 354.486 532.07 354.451C532.135 354.415 532.207 354.392 532.281 354.382C532.356 354.373 532.431 354.377 532.504 354.395C532.577 354.412 532.645 354.443 532.705 354.485C532.765 354.528 532.815 354.58 532.853 354.641C532.891 354.701 532.916 354.768 532.926 354.838C532.937 354.907 532.932 354.978 532.913 355.046C530.777 362.572 524.302 368.486 524.058 368.786C523.995 368.841 523.92 368.882 523.837 368.906C523.754 368.929 523.667 368.934 523.582 368.92Z" fill="#BA68C8"/>
<path d="M537.828 447.496C527.202 449.275 527.866 413.928 530.843 405.202C533.821 396.476 538.348 404.075 538.348 404.075C538.348 404.075 544.614 374.476 552.517 367.891C560.421 361.305 559.613 372.181 559.613 372.181C559.613 372.181 575.763 345.642 590.086 348.537C604.41 351.432 579.128 377.774 579.128 377.774C579.128 377.774 588.116 372.274 592.411 376.513C596.706 380.752 564.738 409.275 564.738 409.275C564.738 409.275 573.682 405.584 577.744 409.554C581.807 413.524 554.222 444.746 537.828 447.496Z" fill="#BA68C8"/>
<path d="M537.352 444.908H537.219C537.149 444.891 537.082 444.861 537.024 444.82C536.966 444.779 536.917 444.728 536.88 444.67C536.843 444.611 536.819 444.546 536.808 444.479C536.798 444.411 536.803 444.343 536.821 444.277C536.976 443.708 552.484 386.95 585.958 353.578C586.005 353.523 586.065 353.478 586.132 353.445C586.199 353.412 586.273 353.393 586.349 353.388C586.425 353.383 586.501 353.393 586.572 353.416C586.644 353.44 586.709 353.477 586.765 353.525C586.82 353.574 586.864 353.632 586.895 353.697C586.925 353.762 586.941 353.832 586.941 353.903C586.941 353.974 586.925 354.044 586.895 354.109C586.865 354.174 586.821 354.233 586.766 354.281C553.48 387.457 538.061 443.956 537.895 444.525C537.863 444.636 537.792 444.734 537.694 444.803C537.595 444.873 537.475 444.909 537.352 444.908Z" fill="#404B7C"/>
<path d="M553.889 402.08C553.793 402.08 553.698 402.056 553.615 402.01C553.531 401.965 553.462 401.9 553.413 401.822C547.093 391.659 553.225 375.438 553.48 374.746C553.503 374.68 553.54 374.619 553.589 374.567C553.638 374.515 553.697 374.473 553.763 374.443C553.83 374.412 553.902 374.395 553.976 374.391C554.05 374.388 554.124 374.398 554.194 374.421C554.263 374.445 554.327 374.481 554.381 374.528C554.436 374.575 554.479 374.632 554.51 374.695C554.54 374.758 554.557 374.826 554.559 374.895C554.561 374.964 554.548 375.033 554.52 375.097C554.454 375.262 548.421 391.225 554.188 401.005C556.258 400.695 567.471 398.338 581.474 383.078C581.57 382.974 581.705 382.91 581.852 382.899C581.998 382.888 582.143 382.932 582.255 383.021C582.366 383.111 582.435 383.237 582.447 383.374C582.458 383.511 582.411 383.646 582.315 383.75C566.508 400.964 554.443 402.08 553.934 402.08H553.889Z" fill="#404B7C"/>
<path d="M542.289 429.63C542.155 429.631 542.025 429.587 541.924 429.506C537.031 425.546 537.496 413.605 537.551 413.099C537.553 413.03 537.569 412.963 537.599 412.901C537.629 412.838 537.672 412.782 537.726 412.736C537.779 412.69 537.843 412.654 537.912 412.631C537.981 412.608 538.054 412.598 538.127 412.603C538.199 412.605 538.271 412.621 538.337 412.65C538.403 412.678 538.462 412.718 538.512 412.768C538.561 412.818 538.599 412.877 538.625 412.941C538.65 413.004 538.661 413.072 538.658 413.14C538.658 413.254 538.171 424.74 542.444 428.555C543.883 428.255 551.399 426.311 560.985 416.748C561.033 416.693 561.092 416.648 561.159 416.615C561.227 416.582 561.301 416.563 561.376 416.558C561.452 416.553 561.528 416.563 561.599 416.586C561.671 416.61 561.737 416.647 561.792 416.696C561.848 416.744 561.892 416.802 561.922 416.867C561.952 416.932 561.968 417.002 561.968 417.073C561.968 417.144 561.953 417.214 561.923 417.279C561.893 417.344 561.848 417.403 561.793 417.451C550.868 428.338 542.698 429.568 542.355 429.62H542.278L542.289 429.63Z" fill="#404B7C"/>
<path d="M567.505 377.936C567.386 377.936 567.271 377.902 567.175 377.836C567.08 377.771 567.009 377.679 566.973 377.574C565.656 373.552 569.364 364.134 569.519 363.72C569.545 363.657 569.583 363.598 569.633 363.548C569.683 363.498 569.742 363.458 569.809 363.43C569.875 363.401 569.947 363.386 570.02 363.383C570.092 363.381 570.165 363.392 570.233 363.415C570.302 363.439 570.364 363.475 570.418 363.522C570.471 363.568 570.514 363.624 570.545 363.686C570.575 363.748 570.592 363.814 570.594 363.883C570.597 363.951 570.585 364.018 570.56 364.082C570.56 364.175 567.162 372.725 567.892 376.716C569.863 375.94 576.349 373.108 580.423 368.331C580.465 368.272 580.52 368.221 580.585 368.182C580.649 368.144 580.722 368.118 580.797 368.107C580.873 368.096 580.951 368.099 581.025 368.118C581.099 368.136 581.168 368.168 581.228 368.213C581.288 368.257 581.337 368.313 581.373 368.376C581.409 368.44 581.43 368.509 581.436 368.581C581.441 368.652 581.431 368.724 581.405 368.791C581.379 368.859 581.339 368.92 581.286 368.972C576.261 374.855 568.003 377.781 567.693 377.905C567.633 377.925 567.569 377.935 567.505 377.936Z" fill="#404B7C"/>
<path d="M521.7 452.195C520.823 452.651 519.789 452.766 518.822 452.516C502.694 448.628 477.644 415.587 482.005 411.906C486.367 408.226 494.569 412.341 494.979 412.527C494.359 411.886 465.424 381.822 470.04 377.945C474.655 374.068 482.78 379.837 483.201 380.126C482.802 379.64 468.601 362.261 469.918 354.187C470.044 353.556 470.365 352.973 470.841 352.51C471.317 352.047 471.928 351.724 472.598 351.58C473.268 351.436 473.968 351.478 474.613 351.701C475.257 351.923 475.818 352.317 476.227 352.833C506.148 389.1 518.601 438.104 521.7 452.195Z" fill="#BA68C8"/>
<path d="M505.838 405.996H505.705C502.705 405.273 491.979 401.695 479.559 385.878C479.472 385.767 479.437 385.628 479.459 385.492C479.482 385.357 479.562 385.235 479.681 385.154C479.8 385.073 479.948 385.04 480.093 385.061C480.239 385.082 480.369 385.157 480.456 385.268C492.632 400.775 503.081 404.301 505.982 404.993C506.101 405.033 506.203 405.11 506.269 405.211C506.335 405.312 506.362 405.432 506.345 405.549C506.329 405.667 506.269 405.776 506.176 405.857C506.084 405.938 505.964 405.987 505.838 405.996Z" fill="#404B7C"/>
<path d="M515.833 434.402H515.711C515.379 434.33 507.332 432.531 497.303 420.91C497.257 420.857 497.223 420.797 497.203 420.731C497.182 420.666 497.175 420.598 497.183 420.53C497.191 420.462 497.213 420.397 497.248 420.337C497.282 420.277 497.329 420.224 497.386 420.182C497.443 420.139 497.508 420.107 497.578 420.088C497.648 420.068 497.721 420.062 497.794 420.069C497.866 420.077 497.936 420.097 498 420.13C498.064 420.162 498.121 420.206 498.167 420.259C507.952 431.631 515.877 433.378 515.955 433.389C516.081 433.422 516.19 433.497 516.263 433.598C516.335 433.7 516.367 433.822 516.353 433.944C516.338 434.065 516.278 434.178 516.183 434.262C516.088 434.346 515.964 434.395 515.833 434.402Z" fill="#404B7C"/>
<path d="M493.374 380.381C493.281 380.382 493.189 380.36 493.108 380.319C490.296 378.871 485.083 375.759 481.74 371.19C481.658 371.076 481.627 370.936 481.655 370.802C481.683 370.667 481.767 370.548 481.889 370.471C482.011 370.395 482.161 370.366 482.305 370.392C482.449 370.418 482.576 370.497 482.659 370.611C485.88 375.005 490.927 378.024 493.65 379.419C493.754 379.477 493.835 379.565 493.881 379.669C493.926 379.774 493.934 379.889 493.903 379.998C493.871 380.107 493.803 380.203 493.707 380.272C493.612 380.342 493.494 380.38 493.374 380.381Z" fill="#404B7C"/>
<path d="M544.469 500.302H505.948C502.873 500.304 499.916 499.19 497.703 497.196C495.489 495.202 494.191 492.483 494.082 489.612L492.422 446.098C492.402 445.586 492.493 445.077 492.689 444.599C492.885 444.121 493.182 443.685 493.562 443.317C493.942 442.948 494.398 442.655 494.901 442.454C495.405 442.253 495.947 442.15 496.495 442.148H553.901C554.448 442.15 554.99 442.253 555.494 442.454C555.998 442.655 556.454 442.948 556.834 443.317C557.214 443.685 557.51 444.121 557.706 444.599C557.902 445.077 557.993 445.586 557.974 446.098L556.314 489.612C556.205 492.479 554.91 495.195 552.701 497.189C550.492 499.183 547.541 500.298 544.469 500.302Z" fill="#C391CB"/>
<path d="M553.912 442.148H542.665C541.802 445.663 542.056 450.729 549.417 453.138C552.069 454.043 554.942 454.219 557.697 453.645L557.985 446.098C558.004 445.586 557.913 445.077 557.717 444.599C557.522 444.121 557.225 443.685 556.845 443.317C556.465 442.948 556.009 442.655 555.505 442.454C555.001 442.253 554.459 442.15 553.912 442.148Z" fill="#ECBDBB"/>
<path d="M528.95 456.241C527.445 451.289 530.279 445.624 532.537 442.16H520.183C513.077 453.284 517.372 473.506 536.699 469.174C546.274 467.024 552.794 468.141 557.088 470.074L557.421 461.328C546.274 454.814 531.087 463.344 528.95 456.241Z" fill="#ECBDBB"/>
<path d="M554.554 495.063C545.145 475.761 528.286 494.691 517.195 474.459C509.612 460.616 499.484 460.595 493.064 462.394L493.429 471.905C513.243 464.668 512.38 494.918 529.238 492.582C538.249 491.31 543.363 495.787 546.163 500.212C547.88 499.979 549.521 499.397 550.971 498.508C552.421 497.618 553.644 496.442 554.554 495.063Z" fill="#ECBDBB"/>
<path d="M502.384 482.215C497.27 483.404 502.107 494.104 506.535 491.261C510.963 488.418 506.258 481.315 502.384 482.215Z" fill="#ECBDBB"/>
<path d="M545.056 474.896C541.547 476.85 547.691 483.777 550.303 480.737C552.915 477.698 547.691 473.428 545.056 474.896Z" fill="#ECBDBB"/>
<path d="M130.699 455.098C138.447 459.967 151.144 431.733 152.04 423.845C152.937 415.957 146.506 420.506 146.506 420.506C146.506 420.506 152.594 394.99 148.72 387.226C144.845 379.462 141.491 388.312 141.491 388.312C141.491 388.312 138.602 362 126.16 359.633C113.718 357.265 123.947 386.389 123.947 386.389C123.947 386.389 118.866 379.152 113.862 381.044C108.859 382.936 123.559 416.029 123.559 416.029C123.559 416.029 117.836 410.188 113.143 412.018C108.45 413.848 118.722 447.572 130.699 455.098Z" fill="#404B7C"/>
<path d="M132.238 453.299H132.149C132.077 453.288 132.008 453.263 131.946 453.227C131.884 453.191 131.83 453.143 131.788 453.088C131.746 453.032 131.716 452.969 131.7 452.902C131.684 452.836 131.682 452.767 131.695 452.699C131.784 452.203 140.65 402.382 126.659 365.247C126.624 365.122 126.641 364.989 126.707 364.875C126.772 364.761 126.881 364.674 127.011 364.631C127.142 364.588 127.285 364.592 127.412 364.643C127.54 364.694 127.642 364.788 127.699 364.906C141.79 402.3 132.88 452.369 132.78 452.875C132.757 452.994 132.69 453.101 132.591 453.179C132.492 453.256 132.367 453.299 132.238 453.299Z" fill="#BA68C8"/>
<path d="M135.115 413.97C135.023 413.97 134.931 413.949 134.85 413.908C134.462 413.711 125.231 408.894 119.165 390.13C119.122 389.992 119.14 389.845 119.213 389.72C119.287 389.595 119.411 389.502 119.558 389.463C119.704 389.423 119.862 389.439 119.996 389.508C120.13 389.577 120.229 389.693 120.272 389.83C125.607 406.371 133.555 411.892 135.138 412.874C143.296 406.991 144.469 392.445 144.48 392.301C144.485 392.233 144.505 392.166 144.537 392.106C144.57 392.045 144.615 391.99 144.67 391.946C144.725 391.901 144.788 391.867 144.858 391.845C144.927 391.824 145 391.815 145.072 391.82C145.145 391.825 145.216 391.843 145.281 391.873C145.346 391.903 145.405 391.945 145.452 391.997C145.5 392.048 145.537 392.108 145.56 392.172C145.583 392.237 145.592 392.305 145.587 392.373C145.587 393.004 144.336 407.881 135.503 413.918C135.385 413.979 135.247 413.997 135.115 413.97Z" fill="#BA68C8"/>
<path d="M134.02 439.582C133.907 439.588 133.795 439.563 133.699 439.51C133.444 439.365 127.411 435.705 122.795 423.495C122.764 423.43 122.747 423.359 122.746 423.288C122.745 423.216 122.761 423.145 122.791 423.079C122.821 423.013 122.866 422.954 122.922 422.905C122.978 422.856 123.044 422.819 123.116 422.795C123.189 422.771 123.266 422.762 123.342 422.767C123.419 422.773 123.493 422.793 123.561 422.827C123.628 422.861 123.688 422.907 123.735 422.963C123.782 423.02 123.817 423.085 123.836 423.154C127.832 433.741 132.99 437.752 134.075 438.507C138.846 436.853 142.72 427.662 142.764 427.569C142.824 427.451 142.93 427.359 143.059 427.31C143.189 427.262 143.334 427.261 143.464 427.308C143.594 427.356 143.701 427.447 143.762 427.564C143.823 427.682 143.834 427.816 143.794 427.941C143.628 428.354 139.543 438.021 134.152 439.572L134.02 439.582Z" fill="#BA68C8"/>
<path d="M133.333 390.388C133.189 390.389 133.05 390.337 132.946 390.244C132.713 390.037 127.267 385.074 125.474 378.706C125.436 378.569 125.458 378.423 125.534 378.301C125.611 378.179 125.737 378.09 125.884 378.055C126.03 378.019 126.186 378.039 126.317 378.111C126.448 378.183 126.543 378.3 126.581 378.437C128.009 383.462 131.972 387.742 133.311 389.075C135.337 386.108 135.846 378.375 135.846 378.292C135.849 378.224 135.866 378.157 135.898 378.095C135.929 378.033 135.973 377.978 136.028 377.932C136.083 377.887 136.147 377.852 136.217 377.831C136.286 377.809 136.36 377.801 136.433 377.806C136.505 377.81 136.577 377.828 136.642 377.857C136.708 377.887 136.766 377.929 136.815 377.979C136.863 378.03 136.9 378.09 136.924 378.154C136.947 378.218 136.957 378.286 136.953 378.354C136.953 378.727 136.355 387.431 133.787 390.213C133.737 390.265 133.675 390.308 133.607 390.338C133.538 390.368 133.464 390.385 133.389 390.388H133.333Z" fill="#BA68C8"/>
<path d="M121.412 456.084C130.267 457.573 129.758 427.985 127.267 420.675C124.777 413.366 120.991 419.724 120.991 419.724C120.991 419.724 115.744 394.912 109.125 389.453C102.505 383.995 103.192 393.041 103.192 393.041C103.192 393.041 89.6648 370.824 77.6768 373.243C65.6887 375.662 86.8532 397.724 86.8532 397.724C86.8532 397.724 79.3261 393.123 75.7064 396.69C72.0868 400.257 98.8634 424.118 98.8634 424.118C98.8634 424.118 91.3695 421.017 87.9712 424.356C84.5729 427.695 107.675 453.779 121.412 456.084Z" fill="#BA68C8"/>
<path d="M121.81 454C121.688 453.999 121.569 453.959 121.473 453.888C121.376 453.817 121.308 453.718 121.279 453.607C121.146 453.131 108.228 405.843 80.3889 378.137C80.3335 378.088 80.2893 378.03 80.2591 377.965C80.229 377.9 80.2135 377.829 80.2136 377.759C80.2136 377.688 80.2293 377.618 80.2597 377.553C80.29 377.488 80.3343 377.429 80.3898 377.381C80.4453 377.333 80.5109 377.295 80.5824 377.272C80.6539 377.248 80.7299 377.239 80.8056 377.243C80.8813 377.248 80.9551 377.268 81.0224 377.301C81.0897 377.333 81.1491 377.378 81.1969 377.434C109.247 405.347 122.231 452.904 122.353 453.411C122.371 453.476 122.375 453.545 122.365 453.612C122.355 453.68 122.331 453.745 122.294 453.803C122.257 453.862 122.207 453.913 122.149 453.954C122.091 453.995 122.025 454.024 121.954 454.041H121.81V454Z" fill="#404B7C"/>
<path d="M107.962 418.156C107.531 418.156 97.358 417.215 84.1413 402.783C84.0459 402.679 83.9987 402.543 84.0101 402.407C84.0215 402.27 84.0906 402.143 84.2022 402.054C84.3137 401.965 84.4586 401.921 84.605 401.932C84.7513 401.942 84.8871 402.007 84.9826 402.111C96.5278 414.734 105.837 416.791 107.708 417.081C112.468 408.924 107.442 395.649 107.387 395.515C107.36 395.451 107.347 395.382 107.348 395.313C107.35 395.244 107.367 395.176 107.397 395.113C107.428 395.05 107.471 394.993 107.526 394.946C107.58 394.899 107.644 394.863 107.714 394.839C107.783 394.816 107.857 394.806 107.931 394.809C108.005 394.813 108.077 394.83 108.144 394.861C108.21 394.891 108.27 394.933 108.318 394.985C108.367 395.037 108.404 395.098 108.427 395.163C108.649 395.742 113.796 409.358 108.427 417.908C108.379 417.983 108.31 418.045 108.229 418.088C108.148 418.131 108.056 418.155 107.962 418.156Z" fill="#404B7C"/>
<path d="M117.67 441.218H117.582C117.294 441.218 110.431 440.184 101.254 431.004C101.199 430.955 101.155 430.897 101.125 430.832C101.094 430.767 101.079 430.697 101.079 430.626C101.079 430.555 101.095 430.485 101.125 430.42C101.155 430.355 101.2 430.296 101.255 430.248C101.311 430.2 101.376 430.163 101.448 430.139C101.519 430.115 101.595 430.106 101.671 430.111C101.747 430.116 101.821 430.135 101.888 430.168C101.955 430.2 102.015 430.246 102.062 430.301C109.977 438.189 116.198 439.874 117.493 440.153C121.013 436.959 120.603 427.437 120.603 427.344C120.601 427.276 120.612 427.208 120.637 427.145C120.662 427.081 120.7 427.022 120.75 426.972C120.799 426.922 120.859 426.882 120.925 426.854C120.991 426.825 121.062 426.809 121.135 426.806C121.208 426.801 121.282 426.809 121.352 426.832C121.421 426.854 121.485 426.89 121.539 426.936C121.594 426.983 121.637 427.04 121.666 427.103C121.696 427.166 121.711 427.234 121.71 427.303C121.71 427.727 122.153 437.765 118.024 441.115C117.923 441.186 117.797 441.223 117.67 441.218Z" fill="#404B7C"/>
<path d="M96.5498 397.951C96.4838 397.962 96.4164 397.962 96.3505 397.951C96.0627 397.848 89.1555 395.398 84.927 390.446C84.8744 390.393 84.8339 390.332 84.8082 390.264C84.7824 390.197 84.7719 390.125 84.7774 390.054C84.7829 389.982 84.8041 389.913 84.8399 389.85C84.8756 389.786 84.9251 389.731 84.9851 389.686C85.0451 389.641 85.1143 389.609 85.1884 389.591C85.2625 389.573 85.3399 389.569 85.4156 389.58C85.4913 389.591 85.5637 389.617 85.6282 389.656C85.6927 389.694 85.748 389.745 85.7904 389.805C89.1112 393.712 94.3912 396.008 96.1402 396.752C96.6826 393.392 93.9263 386.414 93.9263 386.32C93.9009 386.257 93.8892 386.189 93.8918 386.121C93.8944 386.053 93.9114 385.986 93.9417 385.924C93.9721 385.862 94.0151 385.806 94.0685 385.76C94.1219 385.714 94.1846 385.677 94.2529 385.654C94.3212 385.63 94.3939 385.619 94.4667 385.621C94.5396 385.624 94.6112 385.64 94.6775 385.668C94.7438 385.696 94.8035 385.737 94.8531 385.786C94.9028 385.836 94.9414 385.895 94.9668 385.959C95.0997 386.289 98.2212 394.229 97.1032 397.61C97.0628 397.715 96.987 397.805 96.8873 397.867C96.7875 397.928 96.6691 397.958 96.5498 397.951Z" fill="#404B7C"/>
<path d="M142.554 500.299H110.276C107.698 500.301 105.219 499.369 103.361 497.7C101.503 496.03 100.411 493.753 100.313 491.346L98.963 454.914C98.9467 454.486 99.0227 454.059 99.1866 453.659C99.3504 453.259 99.5988 452.893 99.9169 452.585C100.235 452.276 100.616 452.03 101.038 451.862C101.46 451.694 101.914 451.607 102.372 451.605H150.435C150.894 451.607 151.348 451.694 151.77 451.862C152.191 452.03 152.573 452.276 152.891 452.585C153.209 452.893 153.457 453.259 153.621 453.659C153.785 454.059 153.861 454.486 153.845 454.914L152.516 491.346C152.419 493.753 151.326 496.03 149.469 497.7C147.611 499.369 145.132 500.301 142.554 500.299Z" fill="#C391CB"/>
<path d="M150.435 451.605H141.015C140.285 454.552 140.506 458.842 146.672 460.807C148.891 461.564 151.295 461.711 153.601 461.231L153.845 454.914C153.861 454.486 153.785 454.059 153.621 453.659C153.457 453.259 153.209 452.893 152.891 452.585C152.573 452.276 152.191 452.03 151.77 451.862C151.348 451.694 150.894 451.607 150.435 451.605Z" fill="#ECBDBB"/>
<path d="M129.536 463.402C128.275 459.266 130.643 454.511 132.536 451.605H122.186C116.231 460.91 119.84 477.855 136.012 474.216C144.026 472.417 149.494 473.368 153.081 474.97L153.358 467.651C144.037 462.233 131.341 469.357 129.536 463.402Z" fill="#ECBDBB"/>
<path d="M150.967 495.91C143.085 479.74 128.972 495.599 119.685 478.655C113.331 467.065 104.819 467.045 99.4722 468.554L99.7711 476.515C116.375 470.456 115.644 495.785 129.758 493.8C137.296 492.767 141.58 496.489 143.927 500.19C145.363 499.998 146.737 499.516 147.953 498.776C149.169 498.037 150.198 497.059 150.967 495.91Z" fill="#ECBDBB"/>
<path d="M107.287 485.159C103.003 486.193 107.055 495.115 110.763 492.737C114.471 490.36 110.531 484.405 107.287 485.159Z" fill="#ECBDBB"/>
<path d="M143.019 479.031C140.086 480.665 145.233 486.465 147.447 483.921C149.661 481.378 145.244 477.801 143.019 479.031Z" fill="#ECBDBB"/>
<path d="M313.021 395.541H153.623C153.623 395.541 127.278 324.423 128.939 283.71C129.946 258.991 139.388 241.767 156.712 233.052C167.903 227.366 182.404 225.298 200.048 227.025C245.687 231.501 264.726 277.456 267.693 300.717H308.594C309.432 300.717 310.268 300.78 311.095 300.903H311.206C312.043 301.029 312.865 301.226 313.663 301.493C314.158 301.656 314.642 301.845 315.113 302.061C319.763 304.232 324.102 309.608 324.589 322.562C325.286 342.226 321.567 366.594 313.021 395.541Z" fill="#404B7C"/>
<path d="M291.846 396.063H291.713C291.571 396.031 291.448 395.948 291.371 395.831C291.295 395.715 291.27 395.575 291.304 395.442C294.835 381.92 298.366 351.597 299.163 337.465C299.307 334.839 299.34 332.006 299.373 328.997C299.495 317.305 299.628 304.051 307.454 301.084C307.522 301.05 307.597 301.03 307.674 301.025C307.751 301.02 307.828 301.03 307.901 301.054C307.973 301.078 308.039 301.117 308.095 301.167C308.151 301.216 308.195 301.276 308.225 301.343C308.254 301.41 308.268 301.481 308.266 301.553C308.264 301.625 308.246 301.696 308.213 301.761C308.18 301.826 308.133 301.884 308.075 301.932C308.016 301.979 307.948 302.014 307.874 302.035C300.735 304.785 300.591 317.677 300.48 329.049C300.48 332.068 300.414 334.911 300.27 337.558C299.484 351.721 295.931 382.147 292.388 395.722C292.348 395.825 292.274 395.914 292.177 395.975C292.079 396.036 291.963 396.067 291.846 396.063Z" fill="#BA68C8"/>
<path d="M226.205 402.09L245.62 496.707C245.726 497.229 245.707 497.766 245.566 498.28C245.424 498.794 245.162 499.272 244.799 499.681C244.437 500.09 243.982 500.419 243.468 500.644C242.953 500.87 242.392 500.987 241.823 500.987C240.988 500.987 240.175 500.734 239.507 500.267C238.838 499.799 238.35 499.141 238.115 498.392L207.94 402.09H226.205Z" fill="#BA68C8"/>
<path d="M166.154 402.09L146.738 496.707C146.632 497.229 146.651 497.766 146.793 498.28C146.935 498.794 147.196 499.272 147.559 499.681C147.922 500.09 148.376 500.419 148.891 500.644C149.405 500.87 149.967 500.987 150.535 500.987C151.37 500.987 152.183 500.734 152.852 500.267C153.52 499.799 154.009 499.141 154.243 498.392L184.418 402.09H166.154Z" fill="#BA68C8"/>
<path d="M302.306 402.09L321.722 496.707C321.828 497.229 321.809 497.766 321.667 498.28C321.525 498.794 321.264 499.272 320.901 499.681C320.538 500.09 320.084 500.419 319.569 500.644C319.055 500.87 318.493 500.987 317.925 500.987C317.09 500.987 316.277 500.734 315.608 500.267C314.939 499.799 314.451 499.141 314.217 498.392L284.042 402.09H302.306Z" fill="#404B7C"/>
<path d="M242.255 402.09L222.84 496.707C222.734 497.229 222.753 497.766 222.894 498.28C223.036 498.794 223.298 499.272 223.66 499.681C224.023 500.09 224.478 500.419 224.992 500.644C225.507 500.87 226.068 500.987 226.636 500.987C227.472 500.987 228.285 500.734 228.953 500.267C229.622 499.799 230.11 499.141 230.345 498.392L260.52 402.09H242.255Z" fill="#404B7C"/>
<path d="M313.01 395.543L306.369 407.256H157.918L153.612 395.543H313.01Z" fill="#BA68C8"/>
<path d="M181.562 407.772H166.752C166.605 407.772 166.464 407.718 166.36 407.621C166.256 407.524 166.198 407.392 166.198 407.255C166.198 407.118 166.256 406.987 166.36 406.89C166.464 406.793 166.605 406.738 166.752 406.738H181.562C181.709 406.738 181.85 406.793 181.954 406.89C182.057 406.987 182.116 407.118 182.116 407.255C182.116 407.392 182.057 407.524 181.954 407.621C181.85 407.718 181.709 407.772 181.562 407.772Z" fill="#404B7C"/>
<path d="M224.865 407.772H211.582C211.435 407.772 211.295 407.718 211.191 407.621C211.087 407.524 211.029 407.392 211.029 407.255C211.029 407.118 211.087 406.987 211.191 406.89C211.295 406.793 211.435 406.738 211.582 406.738H224.865C225.012 406.738 225.153 406.793 225.257 406.89C225.361 406.987 225.419 407.118 225.419 407.255C225.419 407.392 225.361 407.524 225.257 407.621C225.153 407.718 225.012 407.772 224.865 407.772Z" fill="#404B7C"/>
<path d="M313.021 395.543L308.25 407.256H226.183C225.242 404.341 224.035 400.361 222.762 395.543H313.021Z" fill="#404B7C"/>
<path d="M248.022 137.426C248.022 137.426 247.934 137.271 247.746 136.992C246.439 135.048 240.23 127.294 225.33 128.721C208.317 130.406 201.675 149.791 206.933 157.803C212.191 165.815 202.328 169.475 192.122 173.486C181.916 177.498 173.725 190.545 183.411 202.31C193.096 214.075 242.488 216.784 245.676 202.827C248.864 188.87 238.757 177.622 239.964 166.373L248.022 137.426Z" fill="#404B7C"/>
<path d="M238.082 168.316L236.499 175.883L234.894 183.554L226.316 182.521L227.799 167.861L228.253 163.395L238.082 168.316Z" fill="#ECBDBB"/>
<path d="M238.082 168.316L236.499 175.883C231.374 175.263 228.95 171.334 227.799 167.861L228.253 163.395L238.082 168.316Z" fill="#404B7C"/>
<path d="M207.498 182.392C207.498 182.392 227.422 174.514 248.044 183.943L244.17 195.057L210.276 193.899L207.498 182.392Z" fill="#C391CB"/>
<path d="M184.805 207.206C184.805 207.206 202.793 189.889 226.592 190.406C250.391 190.923 264.228 208.757 264.228 208.757C264.228 208.757 276.404 226.59 276.127 235.378C275.851 244.166 269.209 268.461 269.209 268.461C271.159 275.664 273.846 282.674 277.234 289.396C282.492 299.476 309.889 318.085 314.316 322.221C318.744 326.356 322.342 366.81 263.951 366.81C205.56 366.81 183.145 352.46 183.145 317.31C183.145 282.159 184.805 207.206 184.805 207.206Z" fill="#C391CB"/>
<path d="M243.085 194.229C243.016 194.242 242.945 194.242 242.875 194.229C237.71 192.199 232.183 191.091 226.581 190.962C221.675 190.879 216.785 191.5 212.08 192.802C212.008 192.821 211.932 192.827 211.857 192.818C211.782 192.81 211.709 192.788 211.644 192.753C211.578 192.719 211.52 192.672 211.473 192.617C211.427 192.561 211.392 192.498 211.372 192.43C211.352 192.362 211.346 192.291 211.355 192.221C211.364 192.151 211.387 192.084 211.424 192.022C211.461 191.961 211.511 191.907 211.57 191.863C211.63 191.82 211.698 191.787 211.77 191.768C216.586 190.434 221.592 189.799 226.614 189.887C232.347 190.026 238.001 191.166 243.285 193.247C243.395 193.296 243.485 193.378 243.54 193.48C243.595 193.581 243.613 193.697 243.59 193.81C243.567 193.922 243.506 194.024 243.414 194.1C243.323 194.175 243.207 194.221 243.085 194.229Z" fill="#ECBDBB"/>
<path d="M310.63 460.32L308.704 467.288L305.096 480.304H294.945L298.355 465.572L299.561 460.32H310.63Z" fill="#ECBDBB"/>
<path d="M310.63 460.32L308.704 467.288L298.355 465.572L299.561 460.32H310.63Z" fill="#404B7C"/>
<path d="M339.953 500.993H287.562C287.521 499.614 287.558 498.233 287.673 496.858C288.296 489.922 290.257 483.148 293.462 476.863C299.926 478.414 307.487 477.039 307.487 477.039C307.487 477.039 336.455 490.82 337.739 492.722C338.438 494.026 338.923 495.42 339.178 496.858C339.665 498.967 339.953 500.993 339.953 500.993Z" fill="#C391CB"/>
<path d="M339.953 501.003H287.562C287.521 499.623 287.558 498.243 287.673 496.867H339.178C339.665 498.976 339.953 501.003 339.953 501.003Z" fill="#404B7C"/>
<path d="M290.374 323.209C271.677 321.948 258.527 340.67 267.825 355.868C270.172 359.703 273.36 362.588 276.681 363.829C287.75 367.964 310.996 366.589 310.996 366.589L294.392 462.736H314.682C314.682 462.736 354.166 362.112 356.003 349.014C357.841 335.915 348.443 327.82 331.463 326.269C321.567 325.37 303.579 324.108 290.374 323.209Z" fill="#404B7C"/>
<path d="M301.676 458.171H301.565C301.493 458.158 301.424 458.132 301.362 458.095C301.301 458.057 301.248 458.009 301.207 457.952C301.165 457.895 301.137 457.832 301.122 457.764C301.108 457.697 301.108 457.628 301.122 457.561L323.427 350.589L274.489 345.223C274.416 345.216 274.346 345.195 274.282 345.161C274.218 345.128 274.161 345.083 274.116 345.029C274.071 344.975 274.037 344.913 274.018 344.847C273.998 344.781 273.993 344.712 274.002 344.644C274.022 344.51 274.096 344.388 274.209 344.303C274.322 344.218 274.466 344.178 274.611 344.19L324.146 349.617C324.221 349.626 324.294 349.649 324.359 349.685C324.424 349.721 324.481 349.769 324.526 349.826C324.57 349.883 324.602 349.948 324.619 350.017C324.635 350.086 324.636 350.158 324.622 350.227L302.207 457.747C302.184 457.864 302.119 457.97 302.022 458.047C301.925 458.124 301.803 458.168 301.676 458.171Z" fill="#BA68C8"/>
<path d="M312.103 365.553C312.018 365.554 311.935 365.536 311.859 365.501C311.729 365.439 311.63 365.332 311.584 365.202C311.539 365.072 311.55 364.931 311.616 364.809C311.97 364.137 320.537 348.371 333.334 344.39C333.403 344.369 333.476 344.36 333.548 344.364C333.621 344.369 333.692 344.387 333.757 344.417C333.822 344.447 333.881 344.489 333.929 344.541C333.977 344.592 334.013 344.652 334.036 344.716C334.06 344.781 334.069 344.849 334.064 344.917C334.059 344.984 334.04 345.051 334.008 345.112C333.975 345.173 333.93 345.227 333.875 345.272C333.821 345.317 333.757 345.351 333.688 345.373C321.323 349.218 312.656 365.109 312.656 365.274C312.605 365.368 312.525 365.444 312.426 365.494C312.327 365.544 312.214 365.565 312.103 365.553Z" fill="#BA68C8"/>
<path d="M254.354 460.32L252.472 467.102L248.819 480.304H238.68L241.979 465.965L243.285 460.32H254.354Z" fill="#ECBDBB"/>
<path d="M254.354 460.32L252.472 467.102L241.979 465.965L243.285 460.32H254.354Z" fill="#404B7C"/>
<path d="M283.688 500.993H231.297C231.255 499.614 231.292 498.233 231.407 496.858C232.031 489.922 233.992 483.148 237.196 476.863C243.661 478.414 251.221 477.039 251.221 477.039C251.221 477.039 280.19 490.82 281.474 492.722C282.173 494.026 282.658 495.42 282.913 496.858C283.4 498.967 283.688 500.993 283.688 500.993Z" fill="#C391CB"/>
<path d="M283.688 501.003H231.297C231.255 499.623 231.292 498.243 231.407 496.867H282.913C283.4 498.976 283.688 501.003 283.688 501.003Z" fill="#404B7C"/>
<path d="M299.738 349.004C297.901 362.103 258.417 462.727 258.417 462.727H238.126L254.73 366.579C248.577 366.909 242.409 366.909 236.256 366.579C230.511 366.217 224.6 365.442 220.416 363.881C209.346 359.746 199.749 337.342 217.825 322.176C217.825 322.176 258.295 324.771 275.209 326.311C292.123 327.852 301.587 335.916 299.738 349.004Z" fill="#BA68C8"/>
<path d="M267.825 350.137C262.411 354.818 257.971 360.395 254.73 366.585C248.577 366.915 242.409 366.915 236.256 366.585L267.825 350.137Z" fill="#404B7C"/>
<path d="M245.41 458.171H245.299C245.227 458.158 245.158 458.132 245.097 458.095C245.035 458.057 244.982 458.009 244.941 457.952C244.9 457.895 244.871 457.832 244.857 457.764C244.842 457.697 244.842 457.628 244.857 457.561L267.161 350.589L218.224 345.223C218.151 345.216 218.08 345.195 218.016 345.161C217.952 345.128 217.896 345.083 217.851 345.029C217.805 344.975 217.772 344.913 217.752 344.847C217.733 344.781 217.727 344.712 217.737 344.644C217.756 344.51 217.83 344.388 217.944 344.303C218.057 344.218 218.201 344.178 218.346 344.19L267.881 349.617C267.956 349.626 268.028 349.649 268.094 349.685C268.159 349.721 268.216 349.769 268.26 349.826C268.305 349.883 268.337 349.948 268.353 350.017C268.37 350.086 268.371 350.158 268.357 350.227L245.941 457.747C245.918 457.864 245.853 457.97 245.756 458.047C245.66 458.124 245.537 458.168 245.41 458.171Z" fill="#404B7C"/>
<path d="M255.826 365.553C255.742 365.554 255.658 365.536 255.583 365.501C255.452 365.439 255.354 365.332 255.308 365.202C255.262 365.072 255.273 364.931 255.339 364.809C255.693 364.137 264.261 348.371 277.057 344.39C277.197 344.347 277.349 344.356 277.481 344.417C277.613 344.478 277.713 344.586 277.76 344.716C277.807 344.846 277.797 344.989 277.731 345.112C277.666 345.235 277.551 345.329 277.411 345.373C265.047 349.218 256.38 365.109 256.38 365.274C256.329 365.368 256.248 365.444 256.15 365.494C256.051 365.544 255.938 365.565 255.826 365.553Z" fill="#404B7C"/>
<path d="M258.051 203.244C247.635 198.074 232.404 207.72 239.422 224.613C246.44 241.506 294.015 279.489 302.406 279.748C310.797 280.006 310.265 258.73 310.265 258.73C310.265 258.73 276.316 212.372 258.051 203.244Z" fill="#C391CB"/>
<path d="M272.939 266.531L283.455 207.602H246.096L235.581 266.531H272.939Z" fill="#404B7C"/>
<path d="M242.3 205.203L246.096 207.602H283.455L279.659 205.203H242.3Z" fill="#BA68C8"/>
<path d="M242.3 205.203L231.784 264.132L235.58 266.531L246.096 207.602L242.3 205.203Z" fill="#BA68C8"/>
<path d="M302.406 279.754C299.827 279.454 293.55 273.706 289.256 269.416C286.632 266.821 284.706 264.763 284.706 264.763C280.278 252.006 290.429 246.93 290.429 246.93C290.429 246.93 292.886 248.036 296.24 249.762L296.373 249.824C302.771 253.133 312.302 258.622 314.228 262.954C317.172 269.581 316.475 281.388 302.406 279.754Z" fill="#C391CB"/>
<path d="M298.089 277.882C297.96 277.883 297.835 277.843 297.735 277.768C295.152 275.735 292.695 273.567 290.374 271.275C290.323 271.227 290.283 271.169 290.256 271.105C290.229 271.042 290.215 270.974 290.216 270.906C290.217 270.838 290.233 270.771 290.262 270.708C290.291 270.646 290.332 270.589 290.385 270.541C290.437 270.494 290.499 270.456 290.567 270.431C290.634 270.406 290.707 270.394 290.78 270.395C290.853 270.396 290.925 270.41 290.992 270.437C291.059 270.464 291.12 270.503 291.171 270.552C293.46 272.814 295.885 274.954 298.432 276.962C298.521 277.028 298.586 277.119 298.618 277.222C298.649 277.325 298.646 277.434 298.608 277.535C298.571 277.636 298.501 277.723 298.408 277.785C298.315 277.847 298.203 277.881 298.089 277.882Z" fill="#ECBDBB"/>
<path d="M306.258 256.042C306.143 256.043 306.031 256.011 305.937 255.949C303.59 254.399 300.768 252.745 297.546 251.039C297.427 250.968 297.341 250.857 297.307 250.728C297.273 250.6 297.292 250.464 297.362 250.349C297.431 250.234 297.545 250.148 297.681 250.109C297.816 250.07 297.962 250.081 298.089 250.139C301.343 251.866 304.199 253.541 306.568 255.112C306.66 255.176 306.728 255.265 306.763 255.367C306.798 255.468 306.799 255.578 306.765 255.68C306.731 255.782 306.664 255.871 306.573 255.936C306.482 256.001 306.372 256.038 306.258 256.042Z" fill="#ECBDBB"/>
<path d="M289.256 269.416C286.632 266.821 284.706 264.763 284.706 264.763C280.278 252.006 290.429 246.93 290.429 246.93C290.429 246.93 292.886 248.036 296.24 249.762C297.17 253.991 297.845 263.016 289.256 269.416Z" fill="#BA68C8"/>
<path d="M276.493 253.468L280.278 254.419L287.385 261.056C287.385 261.056 292.554 255.453 290.152 249.601L283.699 245.466L279.824 237.02L276.493 253.468Z" fill="#ECBDBB"/>
<path d="M279.304 235.211C277.44 232.961 275.081 231.11 272.386 229.784C270.593 228.884 268.788 231.055 270.515 234.022C270.515 234.022 267.704 236.09 270.404 239.388C270.404 239.388 267.615 241.59 270.316 244.557C270.316 244.557 267.062 245.694 269.353 248.868C271.644 252.042 275.994 254.813 277.522 254.12C279.05 253.427 277.943 249.985 277.943 249.985C277.943 249.985 280.942 248.31 279.05 244.516C279.05 244.516 281.175 242.624 279.326 239.564C279.304 239.564 281.795 238.406 279.304 235.211Z" fill="#ECBDBB"/>
<path d="M276.493 249.411C276.407 249.411 276.322 249.392 276.245 249.356C276.168 249.32 276.101 249.268 276.05 249.204C274.712 247.686 273.054 246.44 271.179 245.544C271.058 245.48 270.967 245.374 270.925 245.25C270.883 245.125 270.893 244.99 270.954 244.872C271.014 244.754 271.12 244.662 271.25 244.614C271.38 244.566 271.525 244.566 271.655 244.614C273.695 245.576 275.494 246.928 276.935 248.584C276.997 248.661 277.035 248.752 277.044 248.848C277.053 248.943 277.034 249.039 276.988 249.125C276.942 249.211 276.871 249.283 276.784 249.334C276.696 249.384 276.595 249.411 276.493 249.411Z" fill="#404B7C"/>
<path d="M277.467 244.346C277.374 244.346 277.283 244.324 277.202 244.282C277.121 244.241 277.052 244.181 277.002 244.108C275.582 242.313 273.67 240.91 271.467 240.045C271.331 239.994 271.221 239.895 271.163 239.769C271.105 239.643 271.103 239.5 271.157 239.373C271.212 239.245 271.318 239.143 271.453 239.089C271.588 239.035 271.74 239.033 271.877 239.084C274.304 240.021 276.407 241.567 277.954 243.55C278.009 243.629 278.039 243.721 278.042 243.816C278.044 243.91 278.019 244.004 277.969 244.086C277.919 244.168 277.845 244.235 277.757 244.281C277.668 244.327 277.568 244.349 277.467 244.346Z" fill="#404B7C"/>
<path d="M277.467 239.176C277.374 239.176 277.283 239.154 277.202 239.112C277.121 239.071 277.052 239.011 277.002 238.938C275.587 237.108 273.753 235.597 271.633 234.513C271.503 234.45 271.404 234.341 271.359 234.21C271.315 234.079 271.328 233.937 271.395 233.815C271.463 233.693 271.579 233.601 271.72 233.56C271.86 233.518 272.012 233.53 272.142 233.593C274.439 234.754 276.419 236.392 277.932 238.38C277.985 238.458 278.015 238.548 278.019 238.64C278.022 238.733 277.999 238.825 277.952 238.906C277.904 238.988 277.834 239.056 277.749 239.103C277.663 239.15 277.566 239.176 277.467 239.176Z" fill="#404B7C"/>
<path d="M226.127 264.59C226.127 264.59 222.995 266.751 218.135 269.759C209.413 275.094 195.133 283.054 183.511 285.825C165.434 290.136 153.07 287.893 152.151 277.037C151.232 266.182 167.648 223.598 184.806 207.253C195.133 197.432 211.737 222.42 203.989 234.309C199.129 241.763 192.554 252.566 192.554 252.566L206.103 248.938L213.774 246.87C226.681 251.491 226.127 264.59 226.127 264.59Z" fill="#C391CB"/>
<path d="M183.51 286.298C183.364 286.315 183.216 286.276 183.1 286.191C182.983 286.105 182.908 285.98 182.89 285.843C182.873 285.706 182.914 285.568 183.006 285.46C183.097 285.351 183.231 285.281 183.377 285.264C193.849 282.773 206.523 276.011 215.312 270.791C215.436 270.725 215.581 270.706 215.719 270.738C215.856 270.769 215.976 270.849 216.052 270.96C216.129 271.071 216.157 271.206 216.13 271.336C216.104 271.466 216.025 271.582 215.91 271.659C207.055 276.921 194.259 283.734 183.654 286.267L183.51 286.298Z" fill="#ECBDBB"/>
<path d="M192.554 253.044C192.457 253.043 192.362 253.019 192.278 252.973C192.195 252.928 192.125 252.862 192.077 252.784C192.029 252.705 192.004 252.617 192.004 252.526C192.004 252.436 192.03 252.347 192.078 252.268C192.144 252.165 198.72 241.372 203.524 234C206.49 229.452 205.948 222.07 202.151 215.195C199.041 209.571 194.48 205.766 190.528 205.508C190.382 205.498 190.245 205.434 190.148 205.331C190.052 205.227 190.003 205.092 190.014 204.955C190.024 204.818 190.092 204.69 190.203 204.6C190.314 204.51 190.459 204.464 190.606 204.474C195.034 204.763 199.804 208.692 203.136 214.719C207.11 221.956 207.642 229.689 204.476 234.538C200.579 240.514 195.521 248.733 193.727 251.679L203.125 249.157C203.198 249.138 203.274 249.132 203.349 249.141C203.424 249.149 203.496 249.171 203.562 249.206C203.628 249.24 203.686 249.286 203.732 249.342C203.779 249.397 203.813 249.461 203.834 249.529C203.854 249.597 203.86 249.668 203.851 249.738C203.842 249.808 203.818 249.875 203.781 249.937C203.744 249.998 203.695 250.052 203.635 250.096C203.576 250.139 203.508 250.171 203.435 250.19L192.72 253.054L192.554 253.044Z" fill="#ECBDBB"/>
<path d="M226.127 264.591C226.127 264.591 222.995 266.752 218.135 269.76C206.236 264.105 205.793 253.136 206.103 248.939L213.774 246.871C226.681 251.492 226.127 264.591 226.127 264.591Z" fill="#BA68C8"/>
<path d="M214.693 249.68C214.693 249.68 216.63 258.468 223.083 261.053L235.348 251.055C235.348 251.055 247.613 250.559 249.14 249.525C249.609 249.138 249.981 248.659 250.232 248.124C250.482 247.588 250.605 247.008 250.59 246.424C251.293 245.864 251.81 245.13 252.08 244.305C252.351 243.481 252.364 242.602 252.118 241.771C252.843 241.009 253.329 240.076 253.524 239.073C253.719 238.07 253.616 237.037 253.225 236.085C253.225 236.085 256.612 230.72 257.099 228.848C257.586 226.977 255.162 226.398 253.369 228.207C252.33 229.432 251.034 230.445 249.561 231.185C248.598 231.578 239.322 233.315 239.322 233.315C238.534 232.986 237.91 232.391 237.573 231.65L238.58 226.016C237.39 226.52 236.321 227.243 235.437 228.142C234.552 229.041 233.871 230.097 233.433 231.247C232.26 234.927 230.256 242.754 230.256 242.754L214.693 249.68Z" fill="#ECBDBB"/>
<path d="M248.432 395.546H153.623C153.623 395.546 127.278 324.428 128.939 283.715C129.072 280.324 129.367 277.074 129.824 273.966C131.474 262.718 149.24 263.452 149.749 274.793C150.159 283.591 151.221 293.071 152.738 302.8H218.168L221.655 302.883C233.533 302.883 237.805 309.53 239.2 322.143C241.425 342.127 248.432 395.546 248.432 395.546Z" fill="#404B7C"/>
<path d="M218.18 303.319H152.749C152.616 303.318 152.489 303.272 152.389 303.191C152.29 303.109 152.225 302.997 152.206 302.874C150.612 292.629 149.605 283.231 149.218 274.816C149.215 274.748 149.226 274.68 149.251 274.616C149.276 274.553 149.315 274.494 149.364 274.444C149.413 274.394 149.473 274.354 149.539 274.325C149.605 274.297 149.676 274.281 149.749 274.278C149.822 274.274 149.895 274.284 149.964 274.307C150.033 274.33 150.096 274.365 150.15 274.412C150.204 274.458 150.247 274.514 150.277 274.576C150.307 274.639 150.323 274.706 150.325 274.775C150.712 282.994 151.686 292.246 153.236 302.285H218.191C218.263 302.286 218.335 302.3 218.402 302.326C218.469 302.353 218.529 302.392 218.58 302.44C218.631 302.489 218.671 302.546 218.698 302.609C218.726 302.672 218.739 302.739 218.738 302.807C218.738 302.875 218.723 302.942 218.694 303.005C218.666 303.067 218.624 303.124 218.572 303.171C218.521 303.219 218.459 303.256 218.392 303.282C218.324 303.307 218.252 303.32 218.18 303.319Z" fill="#BA68C8"/>
<path d="M222.463 394.779C222.336 394.779 222.212 394.737 222.113 394.662C222.014 394.587 221.946 394.482 221.921 394.365C218.954 381.452 204.774 316.444 216.641 304.473C216.689 304.418 216.748 304.372 216.815 304.34C216.883 304.307 216.956 304.287 217.032 304.283C217.108 304.278 217.184 304.287 217.255 304.311C217.327 304.334 217.392 304.372 217.448 304.42C217.503 304.468 217.548 304.527 217.578 304.592C217.608 304.657 217.624 304.727 217.624 304.798C217.624 304.868 217.609 304.939 217.579 305.004C217.548 305.069 217.504 305.127 217.449 305.176C205.704 317.013 221.19 386.28 222.984 394.148C223.013 394.281 222.986 394.419 222.907 394.533C222.828 394.648 222.705 394.728 222.563 394.758H222.441L222.463 394.779Z" fill="#BA68C8"/>
<path d="M235.027 140.404C225.795 145.098 220.914 171.554 237.385 172.846C253.856 174.138 253.845 130.841 235.027 140.404Z" fill="#ECBDBB"/>
<path d="M224.467 161.717C224.467 161.717 227.655 154.222 231.662 149.57C231.662 149.57 241.492 155.39 249.926 152.547C258.361 149.704 263.077 134.589 255.882 131.612C248.687 128.634 244.812 135.365 244.812 135.365C244.812 135.365 213.863 126.959 224.467 161.717Z" fill="#404B7C"/>
<path d="M227.976 159.388C227.976 159.388 225.352 149.701 217.051 151.634C208.749 153.567 216.364 168.31 228.264 163.399L227.976 159.388Z" fill="#ECBDBB"/>
<path d="M224.766 161.675C224.653 161.676 224.543 161.645 224.45 161.585C224.357 161.526 224.286 161.442 224.245 161.344C224.245 161.293 221.877 155.824 216.951 155.141C216.878 155.131 216.808 155.108 216.745 155.072C216.682 155.037 216.627 154.99 216.584 154.935C216.54 154.88 216.508 154.817 216.491 154.75C216.473 154.684 216.469 154.615 216.48 154.547C216.491 154.479 216.516 154.414 216.554 154.355C216.592 154.296 216.642 154.245 216.701 154.204C216.76 154.163 216.827 154.134 216.899 154.117C216.97 154.1 217.044 154.097 217.117 154.107C222.652 154.893 225.175 160.724 225.275 160.972C225.307 161.05 225.319 161.134 225.309 161.217C225.298 161.299 225.267 161.379 225.217 161.448C225.167 161.517 225.1 161.574 225.021 161.613C224.943 161.653 224.855 161.674 224.766 161.675Z" fill="#404B7C"/>
<path d="M220.283 160.74C220.138 160.74 219.999 160.687 219.895 160.592C219.792 160.498 219.732 160.369 219.729 160.234C219.79 158.89 220.246 157.588 221.046 156.47C221.124 156.354 221.248 156.271 221.392 156.24C221.535 156.209 221.685 156.232 221.81 156.305C221.935 156.378 222.024 156.494 222.057 156.627C222.09 156.761 222.065 156.902 221.987 157.018C221.323 157.97 220.941 159.068 220.88 160.203C220.882 160.27 220.869 160.338 220.843 160.401C220.816 160.464 220.777 160.522 220.726 160.571C220.676 160.62 220.616 160.659 220.549 160.687C220.482 160.714 220.411 160.728 220.338 160.73L220.283 160.74Z" fill="#404B7C"/>
<path d="M232.525 155.355C232.525 155.355 234.496 152.026 237.197 153.442C237.217 153.243 237.314 153.058 237.468 152.92C237.622 152.781 237.824 152.699 238.038 152.688C238.757 152.688 238.735 154.817 238.735 154.817C236.648 154.606 234.536 154.789 232.525 155.355Z" fill="#404B7C"/>
<path d="M248 157.637C248 157.637 247.945 154.163 245.786 155.032C245.79 154.879 245.745 154.728 245.659 154.598C245.572 154.467 245.448 154.363 245.299 154.298C244.502 154.143 244.193 156.128 244.193 156.128C245.601 156.239 246.935 156.768 248 157.637Z" fill="#404B7C"/>
<path d="M237.765 159.666C237.845 158.693 237.227 157.855 236.386 157.794C235.545 157.734 234.798 158.475 234.719 159.448C234.639 160.422 235.256 161.26 236.097 161.32C236.938 161.38 237.685 160.64 237.765 159.666Z" fill="#404B7C"/>
<path d="M237.047 158.97C237.064 158.759 236.895 158.576 236.67 158.559C236.444 158.543 236.247 158.701 236.23 158.912C236.213 159.122 236.382 159.306 236.607 159.322C236.833 159.338 237.03 159.181 237.047 158.97Z" fill="#404B7C"/>
<path d="M247.879 160.253C247.962 159.277 247.346 158.434 246.502 158.371C245.659 158.308 244.907 159.049 244.823 160.025C244.74 161.001 245.356 161.844 246.2 161.907C247.043 161.97 247.795 161.23 247.879 160.253Z" fill="#404B7C"/>
<path d="M246.021 159.615C246.039 159.404 245.87 159.22 245.644 159.204C245.419 159.188 245.222 159.345 245.204 159.556C245.187 159.767 245.356 159.951 245.582 159.967C245.807 159.983 246.004 159.825 246.021 159.615Z" fill="#404B7C"/>
<path d="M241.259 165.927C240.857 165.927 240.457 165.867 240.075 165.752C239.94 165.706 239.83 165.612 239.768 165.492C239.705 165.372 239.695 165.233 239.74 165.106C239.784 164.979 239.88 164.873 240.006 164.81C240.133 164.747 240.28 164.733 240.418 164.77C240.418 164.77 241.99 165.235 242.455 164.325C242.484 164.28 242.499 164.228 242.499 164.175C242.499 164.122 242.484 164.07 242.455 164.025C242.027 163.695 241.493 163.509 240.938 163.498C240.793 163.487 240.659 163.424 240.563 163.321C240.468 163.219 240.42 163.086 240.429 162.95L240.683 159.507C240.698 159.373 240.766 159.249 240.875 159.16C240.984 159.072 241.126 159.026 241.27 159.032C241.415 159.042 241.55 159.106 241.645 159.208C241.74 159.311 241.789 159.444 241.779 159.58L241.558 162.547C241.921 162.586 242.272 162.694 242.589 162.862C242.907 163.031 243.185 163.258 243.407 163.529C243.522 163.722 243.582 163.939 243.582 164.16C243.582 164.38 243.522 164.598 243.407 164.79C243.203 165.152 242.893 165.452 242.512 165.654C242.131 165.855 241.696 165.95 241.259 165.927Z" fill="#404B7C"/>
<path d="M241.071 169.089C241.071 169.089 236.876 171.363 234.54 166.566L241.071 169.089Z" fill="#404B7C"/>
<path d="M287.883 289.664V488.813C287.883 492.096 290.733 494.758 294.248 494.758C297.763 494.758 300.613 492.096 300.613 488.813V289.664C300.613 286.381 297.763 283.72 294.248 283.72C290.733 283.72 287.883 286.381 287.883 289.664Z" fill="#404B7C"/>
<path d="M417.471 283.711H215.733C212.218 283.711 209.368 286.372 209.368 289.656C209.368 292.939 212.218 295.6 215.733 295.6H417.471C420.987 295.6 423.836 292.939 423.836 289.656C423.836 286.372 420.987 283.711 417.471 283.711Z" fill="#BA68C8"/>
<path d="M247.69 283.711H171.035C167.52 283.711 164.671 286.372 164.671 289.656C164.671 292.939 167.52 295.6 171.035 295.6H247.69C251.206 295.6 254.055 292.939 254.055 289.656C254.055 286.372 251.206 283.711 247.69 283.711Z" fill="#BA68C8"/>
<path d="M379.271 480.878H368.401L364.139 466.58L362.235 460.202L374.832 458.785L375.972 464.461L379.271 480.878Z" fill="#ECBDBB"/>
<path d="M375.972 464.461L364.139 466.58L362.235 460.202L374.832 458.785L375.972 464.461Z" fill="#404B7C"/>
<path d="M380.544 477.265C375.237 477.303 369.932 477.086 364.649 476.613C358.638 485.659 337.728 492.379 336.865 493.754C336.492 494.749 336.338 495.804 336.411 496.856C336.411 498.851 336.621 500.991 336.621 500.991H382.891C382.874 493.033 382.089 485.091 380.544 477.265Z" fill="#404B7C"/>
<path d="M382.847 496.867H336.433C336.433 498.863 336.643 501.003 336.643 501.003H382.913C382.913 499.607 382.891 498.242 382.847 496.867Z" fill="#BA68C8"/>
<path d="M416.774 332.654C416.774 332.654 331.12 330.928 323.792 332.654C316.464 334.381 317.04 345.06 318.036 351.956C319.032 358.852 358.992 462.918 358.992 462.918H377.334C377.334 462.918 366.387 397.093 361.328 374.7C361.328 374.7 440.396 388.14 456.524 384.005C472.652 379.87 471.844 350.229 471.844 350.229L416.774 332.654Z" fill="#404B7C"/>
<path d="M365.567 459.297C365.452 459.296 365.34 459.262 365.247 459.199C365.154 459.136 365.084 459.047 365.047 458.945L337.816 358.663C337.796 358.587 337.795 358.508 337.812 358.432C337.83 358.356 337.865 358.284 337.916 358.222C337.967 358.161 338.033 358.111 338.107 358.076C338.182 358.041 338.264 358.023 338.348 358.022H421.91L430.179 343.817C430.214 343.757 430.261 343.704 430.318 343.662C430.374 343.619 430.439 343.587 430.509 343.568C430.579 343.549 430.652 343.543 430.725 343.55C430.797 343.557 430.868 343.578 430.932 343.61C430.995 343.643 431.052 343.687 431.098 343.74C431.143 343.793 431.178 343.854 431.198 343.919C431.219 343.984 431.225 344.053 431.217 344.12C431.21 344.188 431.188 344.253 431.153 344.313L422.718 358.787C422.67 358.869 422.6 358.937 422.514 358.984C422.428 359.031 422.331 359.056 422.231 359.056H339.067L366.154 458.646C366.172 458.712 366.176 458.78 366.166 458.847C366.156 458.915 366.132 458.98 366.095 459.038C366.058 459.097 366.009 459.148 365.951 459.189C365.892 459.23 365.826 459.259 365.755 459.276L365.567 459.297Z" fill="#BA68C8"/>
<path d="M358.937 373.228C358.848 373.227 358.76 373.205 358.682 373.166C358.516 373.083 342.211 364.957 332.835 353.109C332.783 353.056 332.743 352.993 332.718 352.924C332.693 352.855 332.684 352.782 332.691 352.71C332.699 352.638 332.722 352.568 332.761 352.504C332.799 352.441 332.851 352.386 332.914 352.343C332.976 352.3 333.048 352.27 333.124 352.254C333.2 352.239 333.279 352.238 333.355 352.253C333.431 352.268 333.503 352.297 333.566 352.34C333.629 352.382 333.682 352.437 333.721 352.5C342.931 364.151 359.025 372.142 359.18 372.246C359.293 372.297 359.384 372.382 359.438 372.488C359.493 372.594 359.507 372.714 359.478 372.828C359.45 372.942 359.381 373.044 359.283 373.116C359.184 373.189 359.062 373.228 358.937 373.228Z" fill="#BA68C8"/>
<path d="M422.253 359.013C422.161 359.013 422.07 358.991 421.989 358.949C421.907 358.908 421.839 358.848 421.789 358.775C412.933 346.152 421.158 338.801 421.246 338.729C421.355 338.646 421.493 338.605 421.633 338.615C421.773 338.624 421.904 338.682 422 338.778C422.095 338.874 422.148 339 422.148 339.131C422.148 339.262 422.095 339.388 421.999 339.483C421.678 339.763 414.372 346.338 422.718 358.206C422.775 358.284 422.808 358.376 422.813 358.47C422.818 358.564 422.795 358.658 422.747 358.741C422.699 358.824 422.628 358.893 422.541 358.941C422.454 358.989 422.354 359.014 422.253 359.013Z" fill="#BA68C8"/>
<path d="M315.291 458.785V480.878H303.801L302.173 468.09L301.177 460.202L315.291 458.785Z" fill="#ECBDBB"/>
<path d="M301.177 460.202L315.291 458.785V465.557L302.173 468.09L301.177 460.202Z" fill="#404B7C"/>
<path d="M320.216 500.991H259.889C260.073 499.599 260.342 498.219 260.697 496.856C260.911 495.737 261.392 494.677 262.103 493.754C263.586 492.379 289.875 485.659 300.059 476.613C305.995 477.115 311.954 477.332 317.914 477.265C319.213 483.729 319.954 490.281 320.128 496.856C320.194 498.231 320.216 499.575 320.216 500.991Z" fill="#404B7C"/>
<path d="M320.216 501.003H259.889C260.073 499.611 260.342 498.23 260.697 496.867H320.15C320.194 498.242 320.216 499.586 320.216 501.003Z" fill="#BA68C8"/>
<path d="M377.223 332.654C377.223 332.654 297.159 330.928 287.197 332.654C277.234 334.381 275.164 345.06 274.655 351.956C274.146 358.852 299.008 462.918 299.008 462.918H317.449C317.449 462.918 320.405 397.093 319.663 374.7C319.663 374.7 393.462 388.14 415.601 384.005C437.739 379.87 444.381 350.229 444.381 350.229L377.223 332.654Z" fill="#BA68C8"/>
<path d="M298.997 463.436C298.871 463.437 298.748 463.397 298.649 463.324C298.551 463.25 298.482 463.148 298.454 463.033C297.436 458.774 273.593 358.667 274.102 351.916C274.965 340.14 279.338 333.482 287.097 332.149C297.004 330.432 373.969 332.066 377.246 332.149C377.318 332.15 377.39 332.165 377.457 332.192C377.523 332.219 377.583 332.258 377.634 332.307C377.684 332.356 377.724 332.414 377.75 332.477C377.777 332.541 377.789 332.608 377.788 332.676C377.782 332.812 377.72 332.941 377.615 333.035C377.51 333.13 377.369 333.183 377.223 333.182C376.426 333.182 297.104 331.477 287.307 333.182C280.112 334.423 276.039 340.761 275.22 352.009C274.733 358.615 299.307 461.782 299.572 462.826C299.589 462.893 299.591 462.962 299.578 463.029C299.566 463.096 299.539 463.161 299.5 463.218C299.461 463.276 299.41 463.326 299.35 463.365C299.291 463.404 299.223 463.432 299.152 463.446H299.03L298.997 463.436Z" fill="#404B7C"/>
<path d="M308.594 459.3C308.454 459.301 308.32 459.252 308.217 459.164C308.114 459.076 308.051 458.955 308.04 458.825L298.819 358.542C298.813 358.471 298.823 358.399 298.848 358.332C298.873 358.264 298.913 358.202 298.965 358.15C299.017 358.097 299.08 358.055 299.15 358.027C299.221 357.998 299.296 357.984 299.373 357.984H377.356L391.957 343.676C392.06 343.588 392.196 343.541 392.335 343.543C392.475 343.545 392.609 343.596 392.71 343.687C392.81 343.777 392.871 343.899 392.879 344.03C392.887 344.16 392.842 344.288 392.754 344.389L377.998 358.863C377.947 358.914 377.886 358.955 377.817 358.984C377.749 359.012 377.675 359.027 377.6 359.028H299.971L309.147 458.752C309.153 458.82 309.145 458.889 309.122 458.954C309.1 459.019 309.064 459.079 309.017 459.131C308.969 459.182 308.912 459.225 308.847 459.256C308.782 459.287 308.711 459.306 308.638 459.311L308.594 459.3Z" fill="#404B7C"/>
<path d="M317.084 373.233C316.981 373.232 316.882 373.203 316.796 373.151C316.663 373.068 302.904 364.952 293.805 353.115C293.755 353.06 293.718 352.997 293.696 352.928C293.673 352.86 293.667 352.788 293.676 352.716C293.685 352.645 293.71 352.577 293.749 352.515C293.788 352.453 293.841 352.4 293.903 352.358C293.966 352.317 294.037 352.287 294.112 352.273C294.187 352.258 294.264 352.258 294.339 352.273C294.414 352.288 294.485 352.317 294.548 352.358C294.61 352.4 294.663 352.454 294.702 352.515C303.657 364.177 317.239 372.158 317.372 372.282C317.471 372.342 317.547 372.43 317.589 372.534C317.631 372.637 317.636 372.751 317.604 372.857C317.572 372.964 317.504 373.058 317.41 373.125C317.317 373.193 317.202 373.231 317.084 373.233Z" fill="#404B7C"/>
<path d="M377.589 359.013C377.493 359.014 377.399 358.991 377.316 358.948C377.232 358.904 377.162 358.841 377.113 358.765C374.533 354.826 373.703 351.001 374.644 347.393C375.728 343.794 378.18 340.688 381.54 338.657C381.667 338.586 381.818 338.564 381.961 338.597C382.104 338.63 382.228 338.715 382.304 338.833C382.38 338.951 382.403 339.092 382.368 339.226C382.333 339.36 382.242 339.475 382.116 339.546C379.019 341.452 376.751 344.325 375.718 347.651C374.854 350.97 375.64 354.526 378.065 358.217C378.119 358.296 378.149 358.387 378.152 358.481C378.155 358.574 378.131 358.667 378.082 358.749C378.033 358.83 377.961 358.898 377.874 358.945C377.788 358.991 377.689 359.015 377.589 359.013Z" fill="#404B7C"/>
<path d="M406.546 160.344C406.546 160.344 404.797 163.083 403.779 164.727C402.76 166.371 408.572 167.064 408.572 167.064L406.546 160.344Z" fill="#ECBDBB"/>
<path d="M408.572 167.58H408.505C407.753 167.487 403.956 166.97 403.236 165.626C403.14 165.444 403.095 165.243 403.104 165.04C403.114 164.838 403.178 164.641 403.292 164.468C404.31 162.824 406.059 160.074 406.059 160.074L407.011 160.601C407.011 160.601 405.262 163.341 404.244 164.985C404.226 165.011 404.217 165.042 404.217 165.073C404.217 165.104 404.226 165.134 404.244 165.161C404.542 165.729 406.767 166.319 408.671 166.546C408.744 166.552 408.815 166.572 408.879 166.603C408.944 166.635 409.001 166.678 409.048 166.73C409.095 166.783 409.13 166.843 409.152 166.908C409.174 166.973 409.182 167.042 409.175 167.11C409.168 167.177 409.148 167.243 409.114 167.304C409.08 167.364 409.034 167.418 408.978 167.461C408.922 167.505 408.857 167.538 408.787 167.558C408.718 167.579 408.644 167.586 408.572 167.58Z" fill="#404B7C"/>
<path d="M435.669 157.669C434.828 170.799 423.039 176.495 415.213 175.399C414.398 175.293 413.6 175.099 412.833 174.82C404.531 171.719 403.369 154.143 406.745 145.18C408.959 139.318 433.311 134.842 435.525 152.934C435.725 154.505 435.773 156.09 435.669 157.669Z" fill="#ECBDBB"/>
<path d="M435.669 157.668C434.828 170.798 423.039 176.494 415.213 175.398C421.855 170.415 423.371 158.278 423.371 158.278C423.371 158.278 429.736 157.802 435.669 157.668Z" fill="#404B7C"/>
<path d="M431.164 168.055L432.061 184.142L420.582 184.721L421.102 167.062L431.164 168.055Z" fill="#ECBDBB"/>
<path d="M398.809 124.68C398.809 124.68 387.374 132.433 394.016 145.015C400.657 157.597 417.073 152.076 417.073 152.076L418.922 161.64C418.922 161.64 420.947 171.719 429.902 171.719C438.857 171.719 447.525 155.519 447.425 153.369C447.325 151.218 442.997 145.791 442.997 145.791C442.997 145.791 443.274 134.077 438.758 132.092C434.241 130.107 421.135 134.594 421.135 134.594C421.135 134.594 411.173 126.23 398.809 124.68Z" fill="#404B7C"/>
<path d="M417.748 163.69C417.748 163.69 420.881 155.853 427.157 157.228C433.433 158.603 429.006 168.942 419.132 168.001L417.748 163.69Z" fill="#ECBDBB"/>
<path d="M420.051 166.043C419.985 166.055 419.917 166.055 419.851 166.043C419.784 166.018 419.722 165.981 419.67 165.933C419.618 165.886 419.576 165.83 419.547 165.767C419.518 165.705 419.503 165.638 419.502 165.57C419.501 165.502 419.515 165.434 419.541 165.371C419.63 165.154 421.755 160.109 426.615 159.426C426.76 159.408 426.906 159.444 427.024 159.525C427.142 159.606 427.221 159.726 427.246 159.861C427.257 159.928 427.253 159.996 427.236 160.063C427.219 160.129 427.187 160.191 427.144 160.245C427.101 160.3 427.047 160.346 426.984 160.382C426.922 160.417 426.853 160.44 426.781 160.45C422.574 161.05 420.593 165.702 420.571 165.743C420.525 165.835 420.452 165.913 420.359 165.966C420.267 166.02 420.159 166.046 420.051 166.043Z" fill="#404B7C"/>
<path d="M423.903 165.24C423.83 165.239 423.758 165.224 423.692 165.197C423.625 165.17 423.565 165.13 423.514 165.081C423.464 165.032 423.424 164.975 423.398 164.911C423.372 164.848 423.359 164.781 423.36 164.713C423.296 163.749 422.96 162.818 422.386 162.014C422.308 161.898 422.283 161.757 422.316 161.623C422.35 161.49 422.438 161.374 422.563 161.301C422.688 161.228 422.838 161.205 422.982 161.236C423.125 161.267 423.249 161.35 423.327 161.466C424.01 162.444 424.393 163.577 424.434 164.744C424.428 164.874 424.371 164.997 424.272 165.089C424.174 165.181 424.042 165.235 423.903 165.24Z" fill="#404B7C"/>
<path d="M407.432 185.503C407.432 185.503 431.164 173.489 449.429 182.081L445.698 193.453L412.424 195.521L407.432 185.503Z" fill="#404B7C"/>
<path d="M402.683 197.385C413.358 191.484 425.748 188.862 438.104 189.89C459.003 191.575 465.922 201.262 468.135 206.566C470.349 211.869 482.526 292.509 478.098 351.955C478.098 351.955 448.576 362.293 418.235 359.192C387.894 356.09 364.682 327.649 364.682 327.649C364.682 327.649 387.374 276.991 389.034 251.145C390.695 225.299 393.229 205.17 402.683 197.385Z" fill="#404B7C"/>
<path d="M413.918 193.112C413.771 193.134 413.621 193.101 413.501 193.019C413.381 192.938 413.3 192.815 413.276 192.678C413.253 192.541 413.289 192.401 413.376 192.288C413.463 192.176 413.594 192.1 413.741 192.078C421.608 189.624 429.929 188.698 438.193 189.359C440.528 189.542 442.849 189.853 445.145 190.29C445.216 190.304 445.284 190.33 445.344 190.368C445.404 190.406 445.456 190.455 445.496 190.511C445.536 190.568 445.564 190.631 445.578 190.698C445.591 190.765 445.591 190.833 445.576 190.9C445.545 191.033 445.459 191.149 445.337 191.224C445.215 191.3 445.067 191.328 444.923 191.303C442.671 190.875 440.395 190.572 438.105 190.393C429.99 189.747 421.819 190.658 414.095 193.071L413.918 193.112Z" fill="#BA68C8"/>
<path d="M322.53 211.513C322.253 211.43 312.756 205.051 312.756 205.051C312.756 205.051 309.07 200.998 307.409 200.574C304.941 199.896 302.558 198.971 300.303 197.814C299.196 197.039 295.875 193.42 294.126 192.903C292.377 192.386 292.377 195.571 294.403 198.073C296.428 200.574 296.982 201.867 295.51 202.725C294.037 203.583 287.573 203.159 285.636 202.549C283.699 201.939 278.441 199.272 276.969 199.189C275.496 199.106 275.496 201.433 277.157 202.466C278.817 203.5 287.208 209.362 290.351 210.138C293.495 210.913 306.214 210.654 306.214 210.654L318.113 220.652L322.53 211.513Z" fill="#ECBDBB"/>
<path d="M333.82 214.32L322.618 208.375C322.618 208.375 311.139 210.06 311.139 225.433L320.548 233.963C320.548 233.963 334.795 227.367 333.82 214.32Z" fill="#BA68C8"/>
<path d="M406.192 196.52C394.536 196.303 367.449 236.664 367.449 236.664L329.072 214.778C329.072 214.778 320.77 217.88 320.405 228.735C320.405 228.735 354.166 268.879 367.449 271.98C380.732 275.082 414.859 240.965 420.947 230.11C427.035 219.255 424.268 196.862 406.192 196.52Z" fill="#404B7C"/>
<path d="M365.313 259.162C365.18 259.16 365.053 259.115 364.953 259.033C364.854 258.952 364.789 258.84 364.77 258.717C363.852 251.778 364.489 244.737 366.641 238.04C366.688 237.91 366.788 237.803 366.92 237.741C367.052 237.68 367.204 237.671 367.344 237.715C367.483 237.758 367.598 237.852 367.664 237.975C367.729 238.099 367.74 238.241 367.693 238.371C365.595 244.907 364.973 251.779 365.866 258.552C365.877 258.619 365.874 258.687 365.856 258.753C365.839 258.82 365.808 258.882 365.765 258.936C365.721 258.991 365.667 259.037 365.605 259.073C365.542 259.108 365.473 259.131 365.401 259.141H365.324L365.313 259.162Z" fill="#BA68C8"/>
<path d="M390.506 262.072C390.391 262.074 390.278 262.041 390.183 261.98C390.089 261.919 390.017 261.831 389.978 261.73C389.939 261.629 389.934 261.519 389.966 261.415C389.997 261.311 390.062 261.219 390.152 261.152C403.048 251.206 416.796 236.443 420.46 229.889C424.246 223.138 424.279 212.768 420.537 205.759C418.003 200.993 413.896 198.067 408.804 197.271C408.731 197.26 408.662 197.236 408.599 197.2C408.536 197.164 408.482 197.117 408.439 197.061C408.395 197.005 408.364 196.942 408.347 196.875C408.33 196.808 408.327 196.739 408.339 196.671C408.351 196.603 408.377 196.538 408.415 196.48C408.454 196.421 408.504 196.37 408.564 196.33C408.623 196.29 408.691 196.261 408.762 196.245C408.834 196.229 408.908 196.226 408.981 196.237C414.516 197.085 418.822 200.217 421.534 205.283C425.419 212.52 425.386 223.344 421.445 230.354C417.726 236.991 403.856 251.909 390.861 261.927C390.765 262.014 390.639 262.065 390.506 262.072Z" fill="#BA68C8"/>
<path d="M403.701 402.09L423.117 496.707C423.223 497.229 423.204 497.766 423.062 498.28C422.92 498.794 422.659 499.272 422.296 499.681C421.933 500.09 421.479 500.419 420.964 500.644C420.45 500.87 419.888 500.987 419.32 500.987C418.485 500.987 417.672 500.734 417.003 500.267C416.335 499.799 415.846 499.141 415.612 498.392L385.437 402.09H403.701Z" fill="#404B7C"/>
<path d="M343.65 402.09L324.235 496.707C324.129 497.229 324.148 497.766 324.289 498.28C324.431 498.794 324.693 499.272 325.055 499.681C325.418 500.09 325.873 500.419 326.387 500.644C326.902 500.87 327.463 500.987 328.031 500.987C328.867 500.987 329.68 500.734 330.348 500.267C331.017 499.799 331.505 499.141 331.74 498.392L361.915 402.09H343.65Z" fill="#BA68C8"/>
<path d="M479.803 402.09L499.218 496.707C499.324 497.229 499.306 497.766 499.164 498.28C499.022 498.794 498.76 499.272 498.398 499.681C498.035 500.09 497.58 500.419 497.066 500.644C496.551 500.87 495.99 500.987 495.422 500.987C494.586 500.987 493.773 500.734 493.105 500.267C492.436 499.799 491.948 499.141 491.713 498.392L461.538 402.09H479.803Z" fill="#BA68C8"/>
<path d="M419.752 402.09L400.336 496.707C400.23 497.229 400.249 497.766 400.391 498.28C400.533 498.794 400.794 499.272 401.157 499.681C401.519 500.09 401.974 500.419 402.489 500.644C403.003 500.87 403.564 500.987 404.133 500.987C404.968 500.987 405.781 500.734 406.45 500.267C407.118 499.799 407.606 499.141 407.841 498.392L438.016 402.09H419.752Z" fill="#BA68C8"/>
<path d="M490.507 395.543L483.865 407.256H337.097L331.109 395.543H490.507Z" fill="#BA68C8"/>
<path d="M358.937 407.772H344.547C344.4 407.772 344.259 407.718 344.155 407.621C344.051 407.524 343.993 407.392 343.993 407.255C343.993 407.118 344.051 406.987 344.155 406.89C344.259 406.793 344.4 406.738 344.547 406.738H358.937C359.084 406.738 359.224 406.793 359.328 406.89C359.432 406.987 359.49 407.118 359.49 407.255C359.49 407.392 359.432 407.524 359.328 407.621C359.224 407.718 359.084 407.772 358.937 407.772Z" fill="#404B7C"/>
<path d="M490.507 395.543L485.47 407.256H412.911C411.97 404.341 410.763 400.361 409.49 395.543H490.507Z" fill="#404B7C"/>
<path d="M513.376 306.638C508.583 353.161 490.507 395.549 490.507 395.549H331.109C307.929 349.367 306.933 330.479 310.708 316.284C311.885 311.937 314.585 308.081 318.378 305.332C322.17 302.582 326.838 301.095 331.64 301.107H384.518C384.518 301.107 402.317 229.09 451.764 229.09C458.729 229.026 465.676 229.755 472.453 231.261C492.986 236.058 505.251 248.526 510.741 266.525C512.492 272.485 513.557 278.602 513.918 284.772C513.918 284.772 513.918 284.886 513.918 284.938C513.918 285.61 513.996 286.292 514.029 287.006C514.062 287.719 514.084 288.153 514.095 288.722C514.257 294.702 514.017 300.686 513.376 306.638Z" fill="#BA68C8"/>
<path d="M483.987 396.064H331.109C331.004 396.063 330.901 396.035 330.813 395.982C330.725 395.929 330.655 395.853 330.611 395.764C308.029 350.813 306.114 331.439 310.177 316.159C310.317 315.628 310.479 315.104 310.664 314.587C310.687 314.523 310.724 314.463 310.772 314.412C310.819 314.361 310.878 314.319 310.943 314.288C311.008 314.258 311.079 314.24 311.152 314.236C311.225 314.231 311.298 314.24 311.367 314.261C311.436 314.283 311.499 314.317 311.554 314.362C311.609 314.407 311.654 314.461 311.687 314.522C311.719 314.583 311.738 314.65 311.743 314.717C311.748 314.785 311.739 314.853 311.715 314.918C311.538 315.407 311.383 315.904 311.25 316.407C307.254 331.428 309.158 350.523 331.463 394.979H483.998C484.152 394.98 484.299 395.039 484.407 395.141C484.515 395.244 484.575 395.383 484.574 395.527C484.572 395.671 484.51 395.808 484.4 395.909C484.289 396.01 484.141 396.066 483.987 396.064Z" fill="#404B7C"/>
<path d="M513.376 306.635C508.583 353.158 490.507 395.546 490.507 395.546H409.491C405.965 382.308 403.606 368.823 402.439 355.226C401.266 340.959 401.576 325.513 404.897 310.771C415.601 263.214 441.802 240.118 473.161 244.253C473.471 244.253 473.781 244.336 474.091 244.398L474.622 244.471C485.086 246.058 494.665 250.907 501.801 258.228C508.937 265.55 513.208 274.912 513.918 284.79C513.918 284.79 513.918 284.904 513.918 284.956C513.918 285.628 513.996 286.31 514.029 287.023C514.062 287.737 514.084 288.161 514.095 288.74C514.257 294.713 514.016 300.69 513.376 306.635Z" fill="#404B7C"/>
<path d="M488.182 396.038H412.645C412.498 396.038 412.358 395.983 412.254 395.886C412.15 395.789 412.092 395.658 412.092 395.521C412.092 395.384 412.15 395.252 412.254 395.155C412.358 395.058 412.498 395.004 412.645 395.004H488.193C488.266 395.005 488.338 395.019 488.405 395.045C488.471 395.072 488.532 395.11 488.583 395.159C488.634 395.207 488.674 395.265 488.701 395.328C488.728 395.391 488.742 395.458 488.741 395.526C488.74 395.594 488.725 395.661 488.697 395.723C488.668 395.786 488.627 395.842 488.575 395.89C488.523 395.938 488.462 395.975 488.394 396C488.327 396.026 488.255 396.038 488.182 396.038Z" fill="#BA68C8"/>
<path d="M407.033 157.432C407.033 157.432 407.033 155.23 407.797 155.044C408.56 154.858 408.383 155.654 408.383 155.654C408.383 155.654 412.224 155.013 413.232 157.318C411.196 156.8 409.045 156.84 407.033 157.432Z" fill="#404B7C"/>
<path d="M409.258 162.2C410.126 162.2 410.83 161.39 410.83 160.391C410.83 159.392 410.126 158.582 409.258 158.582C408.39 158.582 407.686 159.392 407.686 160.391C407.686 161.39 408.39 162.2 409.258 162.2Z" fill="#404B7C"/>
<path d="M409.579 170.294C409.432 170.305 409.287 170.261 409.175 170.172C409.063 170.083 408.993 169.956 408.981 169.819C408.969 169.681 409.017 169.546 409.112 169.441C409.207 169.336 409.344 169.271 409.49 169.26C410.841 168.936 412.041 168.21 412.911 167.193C412.954 167.132 413.009 167.081 413.075 167.042C413.14 167.003 413.213 166.978 413.29 166.967C413.366 166.956 413.444 166.96 413.519 166.979C413.593 166.998 413.663 167.032 413.723 167.078C413.783 167.124 413.832 167.181 413.867 167.245C413.901 167.31 413.921 167.38 413.925 167.453C413.929 167.525 413.917 167.597 413.889 167.664C413.861 167.732 413.818 167.793 413.763 167.844C412.74 169.075 411.3 169.946 409.679 170.315H409.59L409.579 170.294Z" fill="#404B7C"/>
<path d="M409.579 159.982C409.879 159.982 410.121 159.755 410.121 159.475C410.121 159.196 409.879 158.969 409.579 158.969C409.28 158.969 409.037 159.196 409.037 159.475C409.037 159.755 409.28 159.982 409.579 159.982Z" fill="#404B7C"/>
<path d="M396.318 80.9559V102.915C396.318 105.553 397.44 108.084 399.436 109.951C401.433 111.818 404.141 112.868 406.967 112.871H408.771V120.883C408.76 121.307 408.884 121.724 409.129 122.08C409.375 122.437 409.728 122.717 410.146 122.884C410.563 123.051 411.024 123.097 411.469 123.017C411.915 122.937 412.325 122.734 412.645 122.434L422.884 112.871H450.137C452.964 112.871 455.675 111.822 457.675 109.955C459.674 108.087 460.797 105.555 460.797 102.915V80.9559C460.797 78.3154 459.674 75.7831 457.675 73.916C455.675 72.0489 452.964 71 450.137 71H406.967C404.141 71.0027 401.433 72.0529 399.436 73.9197C397.44 75.7865 396.318 78.3172 396.318 80.9559Z" fill="#BA68C8"/>
<path d="M447.79 79.0117H410.531C409.051 79.0117 407.852 80.1295 407.852 81.5084C407.852 82.8874 409.051 84.0052 410.531 84.0052H447.79C449.27 84.0052 450.469 82.8874 450.469 81.5084C450.469 80.1295 449.27 79.0117 447.79 79.0117Z" fill="#404B7C"/>
<path d="M447.79 89.1758H410.531C409.051 89.1758 407.852 90.2936 407.852 91.6725C407.852 93.0514 409.051 94.1692 410.531 94.1692H447.79C449.27 94.1692 450.469 93.0514 450.469 91.6725C450.469 90.2936 449.27 89.1758 447.79 89.1758Z" fill="#404B7C"/>
<path d="M427.865 99.3477H410.531C409.051 99.3477 407.852 100.465 407.852 101.844C407.852 103.223 409.051 104.341 410.531 104.341H427.865C429.345 104.341 430.544 103.223 430.544 101.844C430.544 100.465 429.345 99.3477 427.865 99.3477Z" fill="#404B7C"/>
<path d="M304.077 109.393V131.352C304.077 133.991 305.199 136.522 307.195 138.388C309.192 140.255 311.901 141.305 314.726 141.308H316.53V149.372C316.53 149.791 316.663 150.201 316.912 150.55C317.162 150.899 317.516 151.17 317.931 151.331C318.346 151.491 318.802 151.533 319.242 151.452C319.683 151.37 320.087 151.168 320.404 150.871L330.644 141.308H357.896C360.723 141.308 363.435 140.259 365.434 138.392C367.433 136.525 368.556 133.993 368.556 131.352V109.393C368.556 106.753 367.433 104.221 365.434 102.354C363.435 100.486 360.723 99.4375 357.896 99.4375H314.726C311.901 99.4402 309.192 100.49 307.195 102.357C305.199 104.224 304.077 106.755 304.077 109.393Z" fill="#BA68C8"/>
<path d="M353.845 124.664C356.492 124.664 358.638 122.66 358.638 120.187C358.638 117.715 356.492 115.711 353.845 115.711C351.198 115.711 349.052 117.715 349.052 120.187C349.052 122.66 351.198 124.664 353.845 124.664Z" fill="#404B7C"/>
<path d="M336.311 124.664C338.958 124.664 341.104 122.66 341.104 120.187C341.104 117.715 338.958 115.711 336.311 115.711C333.664 115.711 331.518 117.715 331.518 120.187C331.518 122.66 333.664 124.664 336.311 124.664Z" fill="#404B7C"/>
<path d="M318.788 124.664C321.436 124.664 323.581 122.66 323.581 120.187C323.581 117.715 321.436 115.711 318.788 115.711C316.141 115.711 313.995 117.715 313.995 120.187C313.995 122.66 316.141 124.664 318.788 124.664Z" fill="#404B7C"/>
<path d="M174.423 155.789C178.323 155.789 181.485 152.836 181.485 149.194C181.485 145.551 178.323 142.598 174.423 142.598C170.522 142.598 167.36 145.551 167.36 149.194C167.36 152.836 170.522 155.789 174.423 155.789Z" fill="#BA68C8"/>
<path d="M180.101 127.085C181.782 127.085 183.145 125.812 183.145 124.242C183.145 122.671 181.782 121.398 180.101 121.398C178.42 121.398 177.057 122.671 177.057 124.242C177.057 125.812 178.42 127.085 180.101 127.085Z" fill="#BA68C8"/>
<path d="M274.467 131.482C277.829 131.482 280.555 128.936 280.555 125.796C280.555 122.655 277.829 120.109 274.467 120.109C271.105 120.109 268.379 122.655 268.379 125.796C268.379 128.936 271.105 131.482 274.467 131.482Z" fill="#BA68C8"/>
<path d="M375.751 178.776C379.829 178.776 383.134 175.688 383.134 171.88C383.134 168.072 379.829 164.984 375.751 164.984C371.673 164.984 368.368 168.072 368.368 171.88C368.368 175.688 371.673 178.776 375.751 178.776Z" fill="#BA68C8"/>
<path d="M525.187 307.659C527.015 307.659 528.497 306.275 528.497 304.568C528.497 302.861 527.015 301.477 525.187 301.477C523.359 301.477 521.877 302.861 521.877 304.568C521.877 306.275 523.359 307.659 525.187 307.659Z" fill="#BA68C8"/>
<path d="M476.714 191.714C479.086 191.714 481.009 189.918 481.009 187.703C481.009 185.487 479.086 183.691 476.714 183.691C474.342 183.691 472.42 185.487 472.42 187.703C472.42 189.918 474.342 191.714 476.714 191.714Z" fill="#BA68C8"/>
<path d="M541.68 295.862C544.052 295.862 545.975 294.067 545.975 291.851C545.975 289.636 544.052 287.84 541.68 287.84C539.308 287.84 537.385 289.636 537.385 291.851C537.385 294.067 539.308 295.862 541.68 295.862Z" fill="#BA68C8"/>
<path d="M497.237 208.759C498.307 208.759 499.174 207.949 499.174 206.95C499.174 205.951 498.307 205.141 497.237 205.141C496.167 205.141 495.3 205.951 495.3 206.95C495.3 207.949 496.167 208.759 497.237 208.759Z" fill="#BA68C8"/>
<path d="M158.926 127.675C158.779 127.675 158.638 127.621 158.534 127.524C158.431 127.427 158.372 127.296 158.372 127.158V122.806C158.372 122.669 158.431 122.537 158.534 122.44C158.638 122.344 158.779 122.289 158.926 122.289C159.073 122.289 159.213 122.344 159.317 122.44C159.421 122.537 159.479 122.669 159.479 122.806V127.158C159.479 127.296 159.421 127.427 159.317 127.524C159.213 127.621 159.073 127.675 158.926 127.675Z" fill="#BA68C8"/>
<path d="M166.774 130.639H162.102C161.956 130.639 161.815 130.585 161.711 130.488C161.607 130.391 161.549 130.26 161.549 130.122C161.549 129.985 161.607 129.854 161.711 129.757C161.815 129.66 161.956 129.605 162.102 129.605H166.763C166.835 129.605 166.907 129.618 166.975 129.643C167.042 129.668 167.104 129.706 167.156 129.753C167.208 129.801 167.249 129.857 167.277 129.92C167.306 129.982 167.321 130.049 167.322 130.117C167.322 130.185 167.309 130.252 167.282 130.315C167.254 130.378 167.214 130.436 167.163 130.484C167.113 130.533 167.052 130.571 166.985 130.598C166.918 130.625 166.846 130.639 166.774 130.639Z" fill="#BA68C8"/>
<path d="M158.926 137.968C158.779 137.968 158.638 137.914 158.534 137.817C158.431 137.72 158.372 137.589 158.372 137.451V133.099C158.372 132.962 158.431 132.83 158.534 132.733C158.638 132.636 158.779 132.582 158.926 132.582C159.073 132.582 159.213 132.636 159.317 132.733C159.421 132.83 159.479 132.962 159.479 133.099V137.431C159.482 137.5 159.47 137.57 159.444 137.635C159.417 137.7 159.377 137.759 159.325 137.81C159.273 137.86 159.211 137.9 159.143 137.927C159.074 137.954 159 137.968 158.926 137.968Z" fill="#BA68C8"/>
<path d="M155.76 130.639H151.088C150.942 130.639 150.801 130.585 150.697 130.488C150.593 130.391 150.535 130.26 150.535 130.122C150.535 129.985 150.593 129.854 150.697 129.757C150.801 129.66 150.942 129.605 151.088 129.605H155.749C155.821 129.605 155.893 129.618 155.961 129.643C156.028 129.668 156.09 129.706 156.142 129.753C156.194 129.801 156.235 129.857 156.263 129.92C156.292 129.982 156.307 130.049 156.308 130.117C156.308 130.185 156.295 130.252 156.268 130.315C156.241 130.378 156.2 130.436 156.149 130.484C156.099 130.533 156.038 130.571 155.971 130.598C155.904 130.625 155.832 130.639 155.76 130.639Z" fill="#BA68C8"/>
<path d="M503.557 191.773C503.411 191.773 503.27 191.719 503.166 191.622C503.062 191.525 503.004 191.393 503.004 191.256V186.904C503.004 186.767 503.062 186.635 503.166 186.538C503.27 186.441 503.411 186.387 503.557 186.387C503.704 186.387 503.845 186.441 503.949 186.538C504.053 186.635 504.111 186.767 504.111 186.904V191.256C504.111 191.393 504.053 191.525 503.949 191.622C503.845 191.719 503.704 191.773 503.557 191.773Z" fill="#BA68C8"/>
<path d="M511.395 194.741H506.734C506.588 194.741 506.447 194.686 506.343 194.589C506.239 194.493 506.181 194.361 506.181 194.224C506.181 194.087 506.239 193.955 506.343 193.858C506.447 193.761 506.588 193.707 506.734 193.707H511.395C511.541 193.707 511.682 193.761 511.786 193.858C511.89 193.955 511.948 194.087 511.948 194.224C511.948 194.361 511.89 194.493 511.786 194.589C511.682 194.686 511.541 194.741 511.395 194.741Z" fill="#BA68C8"/>
<path d="M503.557 202.062C503.411 202.062 503.27 202.008 503.166 201.911C503.062 201.814 503.004 201.682 503.004 201.545V197.193C503.004 197.056 503.062 196.924 503.166 196.827C503.27 196.73 503.411 196.676 503.557 196.676C503.704 196.676 503.845 196.73 503.949 196.827C504.053 196.924 504.111 197.056 504.111 197.193V201.524C504.114 201.594 504.102 201.664 504.075 201.729C504.049 201.794 504.009 201.853 503.957 201.903C503.905 201.954 503.843 201.994 503.775 202.021C503.706 202.048 503.632 202.062 503.557 202.062Z" fill="#BA68C8"/>
<path d="M500.381 194.742H495.665C495.518 194.742 495.378 194.687 495.274 194.59C495.17 194.493 495.112 194.362 495.112 194.225C495.112 194.088 495.17 193.956 495.274 193.859C495.378 193.762 495.518 193.708 495.665 193.708H500.325C500.472 193.701 500.616 193.749 500.725 193.841C500.834 193.933 500.899 194.062 500.907 194.199C500.914 194.336 500.863 194.47 500.764 194.572C500.665 194.674 500.528 194.735 500.381 194.742Z" fill="#BA68C8"/>
<path d="M270.46 185.113C270.313 185.113 270.173 185.058 270.069 184.961C269.965 184.865 269.907 184.733 269.907 184.596V180.243C269.907 180.106 269.965 179.975 270.069 179.878C270.173 179.781 270.313 179.727 270.46 179.727C270.607 179.727 270.748 179.781 270.851 179.878C270.955 179.975 271.014 180.106 271.014 180.243V184.596C271.014 184.733 270.955 184.865 270.851 184.961C270.748 185.058 270.607 185.113 270.46 185.113Z" fill="#BA68C8"/>
<path d="M278.297 188.089H273.637C273.49 188.089 273.349 188.034 273.246 187.937C273.142 187.84 273.083 187.709 273.083 187.572C273.083 187.435 273.142 187.303 273.246 187.206C273.349 187.109 273.49 187.055 273.637 187.055H278.297C278.444 187.055 278.585 187.109 278.688 187.206C278.792 187.303 278.851 187.435 278.851 187.572C278.851 187.709 278.792 187.84 278.688 187.937C278.585 188.034 278.444 188.089 278.297 188.089Z" fill="#BA68C8"/>
<path d="M270.46 195.406C270.313 195.406 270.173 195.351 270.069 195.254C269.965 195.157 269.907 195.026 269.907 194.889V190.536C269.907 190.399 269.965 190.268 270.069 190.171C270.173 190.074 270.313 190.02 270.46 190.02C270.607 190.02 270.748 190.074 270.851 190.171C270.955 190.268 271.014 190.399 271.014 190.536V194.889C271.014 195.026 270.955 195.157 270.851 195.254C270.748 195.351 270.607 195.406 270.46 195.406Z" fill="#BA68C8"/>
<path d="M267.283 188.089H262.623C262.476 188.089 262.335 188.034 262.232 187.937C262.128 187.84 262.069 187.709 262.069 187.572C262.069 187.435 262.128 187.303 262.232 187.206C262.335 187.109 262.476 187.055 262.623 187.055H267.283C267.43 187.055 267.571 187.109 267.674 187.206C267.778 187.303 267.837 187.435 267.837 187.572C267.837 187.709 267.778 187.84 267.674 187.937C267.571 188.034 267.43 188.089 267.283 188.089Z" fill="#BA68C8"/>
</svg>
