<svg width="33" height="32" viewBox="0 0 33 32" fill="none" xmlns="http://www.w3.org/2000/svg">
<path d="M16.5 0C20.9831 0 21.5424 0.0159998 23.3013 0.0959998C25.0585 0.176 26.2548 0.4432 27.3075 0.84C28.3965 1.2464 29.3139 1.7968 30.2313 2.6848C31.0703 3.48463 31.7195 4.45218 32.1338 5.52C32.5413 6.5392 32.8185 7.7008 32.901 9.4048C32.9785 11.1104 33 11.6528 33 16C33 20.3472 32.9835 20.8896 32.901 22.5952C32.8185 24.2992 32.5413 25.4592 32.1338 26.48C31.7207 27.5484 31.0713 28.5162 30.2313 29.3152C29.4062 30.1285 28.4086 30.758 27.3075 31.16C26.2565 31.5552 25.0585 31.824 23.3013 31.904C21.5424 31.9792 20.9831 32 16.5 32C12.0169 32 11.4576 31.984 9.6987 31.904C7.94145 31.824 6.7452 31.5552 5.6925 31.16C4.59085 30.7592 3.59292 30.1295 2.7687 29.3152C1.92952 28.5155 1.28029 27.5479 0.86625 26.48C0.45705 25.4608 0.1815 24.2992 0.0989998 22.5952C0.0214498 20.8896 0 20.3472 0 16C0 11.6528 0.0164998 11.1104 0.0989998 9.4048C0.1815 7.6992 0.45705 6.5408 0.86625 5.52C1.27914 4.45147 1.92853 3.48372 2.7687 2.6848C3.59316 1.87077 4.59103 1.24116 5.6925 0.84C6.7452 0.4432 7.9398 0.176 9.6987 0.0959998C11.4576 0.0207998 12.0169 0 16.5 0ZM16.5 8C14.312 8 12.2136 8.84284 10.6663 10.3431C9.11918 11.8435 8.25 13.8783 8.25 16C8.25 18.1217 9.11918 20.1565 10.6663 21.6569C12.2136 23.1572 14.312 24 16.5 24C18.688 24 20.7864 23.1572 22.3337 21.6569C23.8808 20.1565 24.75 18.1217 24.75 16C24.75 13.8783 23.8808 11.8435 22.3337 10.3431C20.7864 8.84284 18.688 8 16.5 8ZM27.225 7.6C27.225 7.0696 27.0077 6.56089 26.6209 6.18578C26.2341 5.81076 25.7095 5.6 25.1625 5.6C24.6155 5.6 24.0909 5.81076 23.7041 6.18578C23.3172 6.56089 23.1 7.0696 23.1 7.6C23.1 8.1304 23.3172 8.63911 23.7041 9.01422C24.0909 9.38925 24.6155 9.6 25.1625 9.6C25.7095 9.6 26.2341 9.38925 26.6209 9.01422C27.0077 8.63911 27.225 8.1304 27.225 7.6ZM16.5 11.2C17.8129 11.2 19.0719 11.7057 20.0002 12.6059C20.9285 13.506 21.45 14.7269 21.45 16C21.45 17.2731 20.9285 18.494 20.0002 19.3941C19.0719 20.2943 17.8129 20.8 16.5 20.8C15.1872 20.8 13.9281 20.2943 12.9998 19.3941C12.0715 18.494 11.55 17.2731 11.55 16C11.55 14.7269 12.0715 13.506 12.9998 12.6059C13.9281 11.7057 15.1872 11.2 16.5 11.2Z" fill="#324558"/>
</svg>
