<svg width="30" height="27" viewBox="0 0 30 27" fill="none" xmlns="http://www.w3.org/2000/svg">
<path d="M29.6663 12.332C29.6663 11.6248 29.3854 10.9465 28.8853 10.4464C28.3852 9.94632 27.7069 9.66536 26.9997 9.66536H18.573L19.853 3.57203C19.8797 3.4387 19.893 3.29203 19.893 3.14536C19.893 2.5987 19.6663 2.09203 19.3063 1.73203L17.893 0.332031L9.11967 9.10536C8.62634 9.5987 8.33301 10.2654 8.33301 10.9987V24.332C8.33301 25.0393 8.61396 25.7176 9.11406 26.2176C9.61415 26.7177 10.2924 26.9987 10.9997 26.9987H22.9997C24.1063 26.9987 25.053 26.332 25.453 25.372L29.4797 15.972C29.5997 15.6654 29.6663 15.3454 29.6663 14.9987V12.332ZM0.333008 26.9987H5.66634V10.9987H0.333008V26.9987Z" fill="#4889EE"/>
</svg>
