<svg width="32" height="32" viewBox="0 0 32 32" fill="none" xmlns="http://www.w3.org/2000/svg">
<path d="M27.2622 27.2693H22.5244V19.8436C22.5244 18.0729 22.4889 15.7938 20.0533 15.7938C17.584 15.7938 17.2071 17.7209 17.2071 19.7138V27.2693H12.4676V12H17.0187V14.08H17.0809C17.7173 12.8818 19.264 11.6142 21.5751 11.6142C26.3751 11.6142 27.264 14.7751 27.264 18.8871V27.2693H27.2622ZM7.11644 9.91111C6.75476 9.91156 6.39653 9.84062 6.06231 9.7024C5.72809 9.56418 5.42444 9.36133 5.1688 9.10551C4.91316 8.84969 4.71049 8.54587 4.57244 8.21156C4.4344 7.87724 4.36373 7.51902 4.36444 7.15733C4.3648 6.61307 4.52658 6.08107 4.82925 5.62871C5.13191 5.17636 5.56196 4.82391 6.06498 4.61591C6.56791 4.40791 7.12133 4.35378 7.65511 4.46036C8.1888 4.56684 8.67902 4.82933 9.06364 5.2144C9.44827 5.59956 9.71004 6.09004 9.81591 6.624C9.92178 7.15787 9.86693 7.7112 9.65831 8.21387C9.44969 8.71662 9.09662 9.14622 8.64391 9.44827C8.19111 9.7504 7.65893 9.91147 7.11467 9.91111H7.11644ZM9.49156 27.2693H4.73956V12H9.49333V27.2693H9.49156ZM29.6356 0H2.36267C1.05422 0 0 1.03111 0 2.30578V29.6942C0 30.9689 1.056 32 2.36089 32H29.6284C30.9333 32 32 30.9689 32 29.6942V2.30578C32 1.03111 30.9333 0 29.6284 0H29.6338H29.6356Z" fill="#324558"/>
</svg>
