<svg width="74" height="85" viewBox="0 0 74 85" fill="none" xmlns="http://www.w3.org/2000/svg">
<path d="M52.758 53.2262L37 69.0633L21.242 53.2262C9.4317 53.7408 0 63.4522 0 75.438V77.0316C0 81.4308 3.55134 85 7.92857 85H66.0714C70.4487 85 74 81.4308 74 77.0316V75.438C74 63.4522 64.5683 53.7408 52.758 53.2262ZM2.24643 13.2515L3.30357 13.5006V23.1954C2.14732 23.8926 1.32143 25.1045 1.32143 26.5653C1.32143 27.9598 2.08125 29.1219 3.15491 29.8357L0.578125 40.178C0.297321 41.3234 0.925 42.5021 1.83348 42.5021H8.73795C9.64643 42.5021 10.2741 41.3234 9.9933 40.178L7.41652 29.8357C8.49018 29.1219 9.25 27.9598 9.25 26.5653C9.25 25.1045 8.42411 23.8926 7.26786 23.1954V14.4634L18.1696 17.1029C16.7491 19.9583 15.8571 23.1456 15.8571 26.5653C15.8571 38.3021 25.3219 47.8143 37 47.8143C48.6781 47.8143 58.1429 38.3021 58.1429 26.5653C58.1429 23.1456 57.2674 19.9583 55.8304 17.1029L71.7371 13.2515C74.7433 12.5211 74.7433 8.75275 71.7371 8.02231L40.2871 0.385967C38.1397 -0.128656 35.8768 -0.128656 33.7295 0.385967L2.24643 8.00571C-0.743304 8.73615 -0.743304 12.5211 2.24643 13.2515Z" fill="#115ED1"/>
</svg>
