<svg width="85" height="85" viewBox="0 0 85 85" fill="none" xmlns="http://www.w3.org/2000/svg">
<path d="M42.3855 60.043C38.4839 60.043 35.3209 63.2092 35.3209 67.1065C35.3209 71.0123 38.4839 74.1711 42.3855 74.1711C46.2871 74.1711 49.4501 71.0123 49.4501 67.1065C49.4501 63.2092 46.2871 60.043 42.3855 60.043Z" fill="#115ED1"/>
<path d="M10.5963 60.043C6.69476 60.043 3.53174 63.2092 3.53174 67.1065C3.53174 71.0123 6.69476 74.1711 10.5963 74.1711C14.4979 74.1711 17.661 71.0123 17.661 67.1065C17.661 63.2092 14.4979 60.043 10.5963 60.043Z" fill="#115ED1"/>
<path d="M74.1747 60.043C70.2699 60.043 67.1101 63.2092 67.1101 67.1065C67.1101 71.0123 70.2699 74.1711 74.1747 74.1711C78.0731 74.1711 81.2393 71.0123 81.2393 67.1065C81.2393 63.2092 78.0731 60.043 74.1747 60.043Z" fill="#115ED1"/>
<path d="M49.4501 77.707C53.3517 77.707 56.5136 80.8732 56.5136 84.7716H28.2573C28.2573 80.8732 31.4203 77.707 35.3219 77.707H49.4501Z" fill="#115ED1"/>
<path d="M67.1101 77.707H84.7711V84.7716H60.0465C60.0465 80.8732 63.2053 77.707 67.1101 77.707Z" fill="#115ED1"/>
<path d="M17.661 77.707H0V84.7716H24.7245C24.7245 80.8732 21.5658 77.707 17.661 77.707Z" fill="#115ED1"/>
<path d="M0 0V56.5126H84.7711V0H0ZM45.9173 10.6006H67.1101V17.6652H45.9173V10.6006ZM24.7245 38.8569C16.9203 38.8569 10.5964 32.5309 10.5964 24.7288C10.5964 16.9267 16.9203 10.6006 24.7245 10.6006V17.6652C20.823 17.6652 17.6599 20.8283 17.6599 24.7298C17.6599 28.6314 20.823 31.7945 24.7245 31.7945C28.6272 31.7945 31.7892 28.6314 31.7892 24.7298H38.8538C38.8538 32.5309 32.5288 38.8569 24.7245 38.8569ZM60.0465 45.9237H45.9173V38.8569H60.0465V45.9237ZM74.1747 31.7934H45.9173V24.7288H74.1747V31.7934Z" fill="#115ED1"/>
</svg>
