<svg width="40" height="32" viewBox="0 0 40 32" fill="none" xmlns="http://www.w3.org/2000/svg">
<path d="M39.998 3.79877C38.4999 4.45073 36.9112 4.87896 35.2846 5.06917C36.9991 4.06023 38.2824 2.47232 38.8952 0.601345C37.2861 1.54358 35.522 2.2039 33.6832 2.56111C32.4482 1.26087 30.8111 0.398541 29.0266 0.108188C27.2421 -0.182155 25.41 0.115736 23.8152 0.955557C22.2206 1.79538 20.9525 3.13007 20.2082 4.75219C19.464 6.37421 19.2852 8.19284 19.6998 9.92517C16.4367 9.76423 13.2444 8.92988 10.3302 7.47623C7.4161 6.02268 4.84523 3.9823 2.78453 1.48758C2.05512 2.7203 1.67181 4.1216 1.67386 5.54805C1.67386 8.34767 3.12206 10.8211 5.32378 12.2692C4.02082 12.2288 2.74653 11.8825 1.60714 11.2594V11.3597C1.60753 13.2243 2.26329 15.0314 3.4632 16.4745C4.66312 17.9177 6.33336 18.9081 8.19076 19.2779C6.98124 19.6005 5.71292 19.648 4.48194 19.4169C5.00563 21.0219 6.0263 22.4255 7.40105 23.4313C8.7759 24.4371 10.4359 24.9946 12.1488 25.026C10.4464 26.3414 8.49724 27.3139 6.41264 27.8877C4.32807 28.4615 2.14899 28.6254 0 28.3701C3.75137 30.7439 8.11829 32.004 12.5785 32C27.6747 32 35.9302 19.6951 35.9302 9.02353C35.9302 8.67595 35.9203 8.32452 35.9047 7.98089C37.5115 6.83812 38.8984 5.42259 40 3.80066L39.998 3.79877Z" fill="#324558"/>
</svg>
